<?xml version="1.0" encoding="utf-8"?>
<!-- Generator: Adobe Illustrator 16.0.0, SVG Export Plug-In . SVG Version: 6.00 Build 0)  -->
<!DOCTYPE svg PUBLIC "-//W3C//DTD SVG 1.1//EN" "http://www.w3.org/Graphics/SVG/1.1/DTD/svg11.dtd">
<svg version="1.1" id="Layer_1" xmlns="http://www.w3.org/2000/svg" xmlns:xlink="http://www.w3.org/1999/xlink" x="0px" y="0px"
	 width="10000px" height="10000px" viewBox="0 0 10000 10000" enable-background="new 0 0 10000 10000" xml:space="preserve">
<g>
	<path fill-rule="evenodd" clip-rule="evenodd" fill="none" d="M4999.999,9999.377c-1656.475,0-3312.949-0.064-4969.424,0.621
		c-24.953,0.01-30.579-5.615-30.575-30.578C0.649,6656.474,0.649,3343.525,0,30.579C-0.004,5.63,5.605-0.006,30.57,0
		c3312.95,0.651,6625.896,0.651,9938.85,0.001c24.947-0.005,30.586,5.598,30.58,30.57c-0.652,3312.947-0.652,6625.895,0,9938.845
		c0.002,24.936-5.59,30.592-30.568,30.584C8312.955,9999.313,6656.479,9999.377,4999.999,9999.377z"/>
	<path fill-rule="evenodd" clip-rule="evenodd" fill="#035744" d="M1126.19,3044.05c10.391,20.72,20.383,41.652,31.28,62.101
		c11.146,20.917,6.454,36.654-10.805,52.693c-70.756,65.758-152.668,115.805-236.103,173.504
		c1.681-59.914,3.68-114.711-11.894-167.927c-23.074-78.854-92.196-97.768-147.305-38.234
		c-66.665,72.018-93.426,95.691-93.027,228.825c-48.051-41.532-91.428-83.624-139.482-119.438
		c-64.955-48.408-104.131-108.241-118.399-189.354c-12.705-72.228,0.317-120.89,61.125-163.813
		c52.05-36.742,112.79-50.41,173.269-63.623c128.055-27.976,257.742-42.964,388.931-41.876
		c63.17,0.522,126.298,4.079,187.211,23.409c13.656,4.334,25.746,0.857,38.793-2.821
		c246.821-69.547,493.694-138.909,740.774-207.532c17.096-4.748,26.059-14.559,33.47-28.913
		c48.685-94.269,97.555-188.441,146.526-282.562c41.43-79.633,109.119-136.781,173.944-194.87
		c150.402-134.771,318.264-242.836,510.102-309.787c145.492-50.773,296.213-80.983,447.799-106.386
		c238.379-39.945,478.634-59.938,720.173-68.582c178.155-6.375,343.065,40.731,505.55,107.165
		c138,56.423,274.54,118.35,421.92,148.12c101.867,20.579,205.443,15.99,308.328,13.828
		c166.223-3.493,332.322-12.143,498.664-11.121c78.695,0.485,157.313-0.333,235.662,10.281
		c96.205,13.034,181.242,56.836,267.684,95.91c323.689,146.32,640.307,307.281,956.637,468.608
		c153.086,78.074,302.719,162.976,456.384,240.123c6.746,3.388,12.621,8.517,24.15,16.441
		c-101.216-11.063-196.433-16.473-291.901-15.379c-11.488,0.135-27.297-4.488-33.473,7.398
		c-5.535,10.638,7.658,19.725,13.604,28.339c34.328,49.736,69.625,98.802,106.438,150.695
		c-62.883-8.895-122.387-19.215-182.314-25.31c-76.158-7.743-152.684-9.941-228.686,2.931c-17.344,2.937-34.748,7.659-50.994,14.319
		c-12.641,5.183-29.471,11.178-27.693,28.74c1.531,15.144,16.57,19.783,29.6,23.087c87.883,22.29,176.234,42.831,263.713,66.592
		c282.971,76.858,563.694,160.257,824.009,299.464c36.785,19.671,72.895,40.788,110.783,71.538
		c-99.525,9.273-187.695,38.356-273.883,74.444c-7.969,3.338-19.84,4.214-21.604,12.425c-2.625,12.184,11.457,14.783,18.971,19.898
		c226.713,154.407,454.018,307.882,704.381,422.928c3.857,1.773,7.205,4.658,16.555,10.832
		c-74.547-10.077-142.557-19.528-210.641-28.428c-199.932-26.127-400.607-43.795-602.064-52.762
		c-170.676-7.595-341.384-10.168-511.901,1.911c-142.443,10.088-284.48,23.96-419.025,77.579
		c-36.17,14.413-70.164,32.188-99.727,58.088c-72.375,63.397-72.32,176.438,1.373,239.532
		c56.256,48.161,123.949,76.783,190.518,106.604c160.498,71.891,321.311,143.144,470.162,237.869
		c131.46,83.654,250.976,181.663,353.323,299.755c2.805,3.236,4.807,7.171,12.195,18.387
		c-206.051-75.364-406.345-143.365-620.872-191.201c56.238,87.001,104.297,169.546,140.463,267.986
		c-45.707-24.77-83.904-46.994-123.391-66.612c-199.777-99.24-409.777-164.73-631.9-190.014
		c-69.6-7.919-138.99-10.724-208.408,1.126c-21.986,3.749-43.145,10.324-62.766,20.705c-43.932,23.244-53.902,67.068-21.477,105.033
		c48.396,56.668,109.287,99.627,167.797,144.829c229.525,177.313,464.508,348.012,670.832,553.365
		c98.34,97.874,191.805,199.891,253.863,326.061c12.031,24.455,21.643,50.098,35.404,82.278
		c-59.811-33.255-116.318-52.292-177.691-55.188c-135.662-6.4-250.471,45.373-354.617,126.596
		c-144.121,112.393-236.203,264.819-323.18,421.215c-200.488,360.531-393.715,724.979-581.348,1092.283
		c-117.734,230.465-237.904,459.693-353.783,691.106c-5.752,11.494-12.818,22.333-22.412,38.892
		c-2.023-31.414,9.602-53.329,16.568-75.581c63.391-202.472,127.971-404.571,192.205-606.776
		c125.434-394.854,259.836-786.741,390.111-1179.993c14.572-43.98,34.236-86.53,39.605-133.276
		c7.955-45.91,28.131-88.295,38.404-133.512c7.064-49.877,33.428-93.309,47.01-141.18c26.879-94.717,57.959-188.128,92.535-280.401
		c17.502-46.711,13.943-92.968-9.873-137.929c-45.631-86.145-103.008-164.285-159.209-243.574
		c-60.189-84.928-124.848-166.425-189.178-247.898c-75.623-95.783-139.969-198.801-209.01-298.822
		c-8.404-12.174-12.568-25.762-16.838-39.545c-4.998-32-26.529-56.91-36.994-87.04c-14.361-41.352-12.898-81.129-6.822-122.366
		c10.605-27.359,31.416-43.108,56.762-57.282c63.777-35.662,130.396-53.711,203.797-61.137
		c52.795-5.346,105.361-8.374,158.182-10.761c24.334-1.1,46.576-16.901,71.486-12.563c84.266,14.676,169.834,7.775,254.139,15.659
		c73.15,6.841,146.123,18.159,219.445,25.786c33.359,3.469,65.523,16.879,105.432,24.075c-24.58-18.628-48.467-20.947-69.611-29.821
		c-79.553-33.388-160.398-65.074-242.627-89.327c-97.08-28.63-188.992-67.357-280.42-108.987
		c-33.85-15.413-61.531-38.581-88.191-63.585c-12.549-20.512-29.213-38.156-37.969-61.451
		c-13.604-36.184,0.395-69.186,8.037-103.153c37.34-74.152,99.967-125.571,161.047-178.276
		c95.988-82.826,209.318-137.301,325.301-182.353c87.553-34.008,179.422-60.107,273.479-75.111
		c63.975-10.206,127.09-26.027,192.508-25.775c133.133-0.055,266.195-0.032,399.217-0.11c17.02-0.422,34.109-1.339,50.898,2.568
		c17.406,8.692,34.774,18.148,55.71,7.401c-7.389-13.917-20.125-17.375-32.77-20.962c-46.353-18.578-88.151-45.875-130.646-71.218
		c-97.186-57.965-202.4-96.862-308-134.903c-36.93-13.302-78.346-13.125-112.541-35.7c-23.504-16.165-50.338-4.779-75.264-9.07
		c-5.314-0.53-10.389-1.927-15.262-4.079c-16.922-12.819-36.596-7.613-55.369-8.343c-119.814,0.542-239.67-2.211-359.365,1.251
		c-61.328,1.774-122.791,10.176-183.404,22.105c-37.338,7.35-75.248,1.703-112.838,3.615
		c-135.086,6.877-257.314-32.649-371.842-101.415c-76.791-46.104-156.42-87.338-232.223-135.201
		c-122.912-77.604-242.582-160.065-350.996-256.892c-71.197-63.583-135.059-134.923-167.369-228.322
		c-7.271-21.024-14.77-41.885-17.699-63.981c-8.854-66.833,7.936-98.192,72.531-118.005c99.24-30.441,199.514-55.893,303.246-69.61
		c48.791-6.451,98.428-12.339,147.285-19.368c98.141-14.121,198.49-31.967,297.055-15.222
		c93.305,15.852,186.793,33.16,279.043,56.745c65.141,16.656,128.52,41.792,196.256,48.152c11.4,1.07,21.125,6.335,30.006,13.198
		c30.412,19.813,67.936,14.454,100.322,27.928c7.508,3.127,17.193,1.262,20.512,4.752c-28.51,1.913-49.154-28.741-81.492-29.077
		c-29.174-4.408-53.947-20.244-79.971-32.018c-75.793-34.297-154.785-60.577-231.025-93.194
		c-72.537-31.032-149.619-47.729-221.738-78.93c-8.174-3.539-16.695-6.614-25.621-6.652c-82.869-0.343-165.48-9.904-247.885-12.279
		c-207.115-5.968-414.68,2.863-621.744-3.941c-109.285-3.594-221.121-12.032-322.037-65.09
		c-15.883-16.926-35.515-26.486-58.547-29.334c-82.115-30.619-159.4-71.828-237.232-111.292
		c-81.996-41.574-170.205-61.136-257.761-83.983c-11.779-3.072-24.26-1.515-36.428-1.539c-107.394-0.207-214.79,0.324-322.19-0.2
		c-54.758,1.858-109.713-4.931-164.25,4.12c-3.104,2.132-6.447,3.772-9.967,5.075c-12.564,4.044-25.602,3.199-38.52,3.686
		c-5.52,0.305-11.041,0.2-16.566,0.168c-30.792,2.818-62.963-7.698-92.227,9.758c-90.869,7.774-180.721,24.551-271.742,30.714
		c-26.207,0.724-52.818-5.386-78.511,4.455c-2.815,1.939-5.876,3.416-9.084,4.561c-18.448,6.323-39.907-1.909-56.868,11.798
		c-4.547,2.145-9.338,3.4-14.3,4.039c-15.837,1.646-32.739-1.816-46.483,9.84c-101.21,44.774-189.677,109.866-277,176.201
		c-104.945,79.718-205.458,165-303.468,253.098c-27.958,25.133-50.413,55.942-76.948,82.603
		c-27.824,27.955-26.554,60.147-14.35,92.483c8.098,21.463,19.266,42.687,35.394,59.807c37.916,40.245,77.525,78.5,126.72,105.44
		c11.638,6.373,31.659,11.724,24.179,29.732c-7.142,17.201-25.947,26.092-44.739,20.594
		c-44.517-13.025-91.433-15.373-135.127-31.572c-7.188-2.663-15.656-6.935-21.602,0.14c-6.511,7.746,1.309,14.488,5.396,20.454
		c11.274,16.453,24.492,31.557,35.367,48.272c28.661,44.063,17.692,73.22-31.594,88.384c-51.164,15.74-102.049,16.325-153.165,0.525
		c-15.158-4.685-30.814-3.428-46.253-3.044c-49.89,1.243-99.475,0.559-147.723-14.789c-16.235-5.165-32.794-10.637-37.751-28.711
		c-4.965-18.106,8.777-28.236,21.101-38.018c25.911-20.565,53.387-39.115,79.482-61.364c-26.048-11.295-48.099,3.801-70.168,10.029
		c-87.017,24.563-168.517,60.948-235.266,124.028c-26.813,25.339-23.183,49.141,9.211,68.991
		c21.685,13.286,43.829,25.925,66.754,37.212c6.61,6.841,19.051,11.343,14.651,23.342c-4.536,12.374-17.36,12.184-28.341,12.431
		c-38.638,0.865-77.29,0.197-115.906,0.465c-74.242-0.338-146.207-15.974-218.08-32.568
		c-106.157-24.511-211.452-55.12-322.387-47.268c-9.904,0.702-19.946-0.186-29.707,2.125c-30.829,7.295-41.039,26.226-31.418,56.461
		C1113.653,2999.651,1125.347,3020.269,1126.19,3044.05z"/>
	<path fill-rule="evenodd" clip-rule="evenodd" fill="#C62232" d="M3230.157,1878.341c54.557,0.946,107.914-12.208,161.768-17.671
		c38.401-3.896,77.154-7.133,115.824-10.002c18.168-10.857,38.172-4.287,57.301-5.982c12.746-1.131,26.205,2.559,37.785-5.936
		c3.898-0.034,7.797-0.07,11.695-0.106c13.736,8.025,27.338,9.893,40.655-0.905l-0.091,0.03c19.187-11.896,40.43-4.531,60.682-6.392
		c37.634-3.459,76.014,6.897,113.152-6.063c108.615-0.346,217.252-2.093,325.84-0.465c56.357,0.846,109.188,22.238,163.457,35.752
		c82.794,20.618,154.199,65.625,230.762,99.187c46.172,20.239,92.106,42.173,137.29,65.114
		c16.349,11.698,36.878,15.453,52.866,27.833c77.822,29.327,157.1,46.472,241.041,54.101
		c246.086,22.366,492.484,1.506,738.234,13.83c74.365,3.73,149.545,3.572,223.23,13.441c42.549,5.699,83.35,26.663,125.201,40.071
		c55.822,17.884,109.697,41.781,164.658,62.428c81.43,30.59,162.424,62.112,240.037,101.734c7.539,3.849,16.807,4.313,25.27,6.347
		c7.355,11.232-0.176,16.042-9.123,17.783c-12.561,2.438-25.424,2.442-36.695-5.617c-30.193-20.718-67.424-12.035-100.473-25.18
		c-58.898-23.423-123.406-29.146-183.459-50.745c-23.299-8.382-49.236-9.078-73.727-13.725
		c-98.725-18.739-198.443-42.993-299.4-27.182c-54.555,8.544-111.164,1.389-163.949,21.938c-3.922,1.527-8.832,1.144-13.213,0.789
		c-56.58-4.574-111.9,9.673-166.443,18.394c-87.613,14.008-173.191,41.173-259.254,64.188c-37.318,9.98-58.133,39.752-57.648,79.16
		c1.049,84.841,41.006,154.267,92.221,217.298c77.805,95.753,175.4,169.809,275.008,241.077
		c68.529,49.032,138.861,95.414,211.408,138.323c105.537,62.423,211.301,124.693,322.727,175.988
		c22.182,10.212,48.549,15.699,74.418,20.255c81.215,14.305,162.703,14.604,244.023,9.674
		c65.906-3.997,131.146-20.048,197.029-22.973c124.061-5.509,248.373-5.049,372.576-0.769c16.637,12.807,39.004-0.881,55.607,12.037
		c3.73,0.258,7.457,0.517,11.184,0.775c13.438,10.409,29.186,5.131,43.949,6.416c12.662,1.103,26.24-2.962,37.287,6.854
		c69.563,19.507,138.516,40.701,206.598,65.165c69.088,24.825,133.896,58.038,198.133,92.714
		c49.168,26.539,97.652,54.348,146.438,81.593c6.881,6.962,15.125,14.556,8.277,24.825c-7.508,11.249-18.308,8.237-28.384,2.47
		c-17.049-0.402-34.1-0.805-51.145-1.207c-8.549-6.569-18.621-6.111-28.561-6.118c-119.338-0.077-238.68-0.069-358.018-0.003
		c-9.939,0.004-19.992-0.419-28.74,5.682c-56.223,4.403-111.414,14.948-166.943,24.458c-47.842,8.194-94.244,21.604-141.723,30.701
		c-31.449,6.027-61.512,19.233-92.264,29.024c-88.82,28.277-172.029,68.324-252.924,114.632
		c-64.467,36.903-122.764,80.486-177.266,130.749c-40.508,37.353-73.93,79.668-105.092,124.392
		c-28.877,59.399-24.693,113.154,27.121,158.775c49.248,40.468,102.977,74.481,163.422,94.127
		c65.529,21.297,126.141,53.826,194.293,70.888c61.135,15.312,121.588,41.006,181.42,64.617
		c44.865,17.704,89.848,35.247,135.527,50.651c10.654,3.592,20.801,6.478,19.748,17.164c-1.506,15.317-15.785,7.9-24.082,7.866
		c-24.117-0.102-46.359-11.133-69.625-16.183c-19.256-4.179-38.426-5.638-57.561-8.89c-60.828-10.331-122.883-10.108-183.482-23.762
		c-26.488-5.966-55.291-4.215-82.824-2.496c-60.701,3.792-120.639-16.827-180.016-10.101c-60.301,6.831-121.527,1.148-180.25,12.034
		c-54.447,10.09-111.578,7.101-163.387,27.555c-40.061,15.815-76.873,39.702-115.818,58.582
		c-14.361,6.964-4.129,30.444-24.096,31.687c-14.898,33.7-13.352,70.809-3.49,102.567c11.771,37.931,26.795,76.449,49.225,110.629
		c43.244,72.99,90.424,143.392,139.43,212.615c70.996,100.286,148.146,195.888,222.887,293.319
		c34.068,44.402,72.744,86.123,100.871,134.025c47.002,80.057,114.537,149.49,131.607,245.83
		c7.59,42.846-9.076,80.666-23.254,118.408c-36.398,96.871-65.057,196.238-97.162,294.473
		c-9.244,28.299-26.662,53.729-29.258,84.236c-6.854,34.331-34.547,61.396-33.945,98.594c0.123,7.701-5.387,15.019-15.732,8.66
		c-21.492-174.406-119.648-305.635-241.348-422.186c-78.27-74.957-165.975-138.613-256.881-197.643
		c-18.418-14.982-19.77-40.176-34.43-57.42c-5.984-23.357-13.488-46-30.379-64.237c-1.943-2.496-3.438-5.224-4.674-8.118
		c-11.52-43.705-40.988-79.773-52.514-123.535c-2.352-8.926-12.686-11.622-18.705-17.902
		c-34.299-53.51-56.613-112.745-79.822-171.304c-34.588-87.27-67.438-175.329-93.246-265.662
		c-31.25-109.368-48.869-220.194-31.721-334.521c9.383-62.561,37.416-118.348,63.545-174.001
		c52.455-111.726,127.447-209.521,200.166-308.717c36.166-49.334,78.375-92.955,116.945-139.909
		c9.879-12.026,20.068-23.649,32.715-32.821c12.236-5.281,24.396-10.715,30.15-24.197c1.721-2.54,3.705-4.826,5.854-6.994
		c25.889-26.607,55.238-49.904,76.596-80.817c57.439-58.604,118.1-113.53,187.221-158.142c23.334-15.061,45.719-31.47,67.707-48.093
		c43.643-32.985,92.813-55.541,140.686-80.71c4.725-2.485,10.508-4.107,12.295-14.147c-30.449-2.14-61.152-12.197-89.863-12.419
		c-57.938-0.447-114.178-12.009-171.047-17.823c-49.066-5.021-98.516-9.681-147.469-17.387c-33.453-15.14-68.789-4.282-103.096-7.53
		c-9.707,0.308-19.133-1.009-28.174-4.645c-28.689-16.195-59.813-6.025-89.813-8.209c-97.945-3.655-195.686-9.523-292.76-23.592
		c-3.285-0.475-6.588-1.604-9.848-1.401c-85.334,5.335-168.93-15.054-254.268-16.271c-80.846-1.155-162.537-7.637-243.044-21.81
		c-43.671-7.687-88.458-1.039-132.675-3.098c-15.416-0.716-34.117,4.493-42.498-16.021c6.631-10.496-4.539-10.488-8.594-12.65
		c-194.088-103.528-389.111-205.251-585.592-304.202c-60.261-30.35-119.576-62.916-175.508-101.009
		c-64.023-43.604-79.09-86.438-35.83-164.394c35.119-63.284,89.861-109.075,145.565-153.118
		c111.403-88.08,231.399-161.807,364.486-212.801c39.081-14.975,78.741-28.443,118.902-48.519
		c-34.594-2.219-69.169-5.974-103.784-6.401c-206.397-2.541-411.418,16.691-616.113,40.519
		c-123.036,14.323-246.041,28.945-369.189,42.253c-16.732,1.81-39.602,9.383-50.165-6.262c-11.613-17.199-0.272-37.233,8.118-56.063
		c14.561-32.68,44.842-51,66.479-80.272c-27.26-7.27-52.262,0.983-76.842,8.056c-89.691,25.797-166.262,76.546-241.908,128.885
		c-14.559,10.069-28.936,20.425-43.877,29.891c-10.588,6.71-20.387,20.279-35.148,9.696c-13.34-9.559-19.52-22.779-17.691-40.166
		c4.194-39.871-0.027-43.063-39.131-26.631c-88.66,37.258-160.737,95.565-217.078,173.537
		c-10.353,14.328-22.209,27.568-33.37,41.309c-15.645,37.858-57.15,38.612-85.309,58.576c-21.535,15.27-46.168,26.349-64.936,45.589
		c-30.461,31.226-32.087,62.587-6.56,98.032c13.701,19.027,31.198,34.409,46.873,51.537c11.046,12.075,24.416,23.892,15.519,43.351
		c-71.622-13.526-142.875-29.414-215.835-34.489c-11.003-0.765-22.191-1.121-33.115,0.023c-6.995,0.734-16.85-0.718-19.188,9.278
		c-2.063,8.813,4.168,14.206,10.604,18.992c23.069,17.162,46.673,33.676,68.888,51.885c10.809,8.857,24.312,20.201,18.396,36.087
		c-5.927,15.905-22.035,18.599-38.277,19.433c-102.422,5.256-203.147-11.502-304.33-22.56
		c-62.688-6.851-124.967-18.12-188.246-18.484c-10.077-0.058-25.314-6.882-29.328,6.517c-3.567,11.902,11.196,17.56,19.538,23.901
		c31.64,24.06,64.06,47.101,95.747,71.103c10.389,7.866,23.787,16.866,18.147,32.034c-4.49,12.08-19.373,8.409-29.518,9.343
		c-91.8,8.444-183.838,4.403-275.726,2.558c-136.231-2.734-272.42-7.777-408.607-12.364c-96.25-3.238-192.471-7.347-288.708-11.064
		c-22.331-23.414-25.741-55.464-36.2-83.869c-7.587-20.604,22.086-50.182,49.101-50.112c59.06,0.153,117.445-2.827,177.136,9.104
		c52.677,10.527,106.752,19.54,158.056,33.459c55.42,15.037,112.675,17.429,167.436,34.061c19.442,5.904,41.668,2.649,62.623,3.575
		c53.487,12.624,107.11,4.297,161.535,4.094c-1.508-25.903-24.083-21.654-35.542-31.146c-35.003-11.607-69-24.86-91.405-56.732
		c-13.003-18.495-10.017-33.881,6.822-49.239c54.231-49.461,114.802-86.501,184.818-110.877
		c42.971-14.96,84.801-31.865,130.268-37.103c8.636-0.995,17.695-2.334,28.064,4.022c-9.839,24.267-37.73,28.652-53.903,46.081
		c-10.797,11.636-27.128,23.662-43.126,32.817c-9.544,5.464-22.75,13.453-18.355,28.132c3.674,12.272,16.894,19.854,27.332,20.578
		c30.867,2.143,59.014,17.56,90.783,15.203c64.073-4.754,126.987,11.077,190.874,12.95c30.4,0.891,58.785-6.432,86.977-12.925
		c26.473-6.094,24.394-30.615,17.171-51.793c-10.143-29.74-36.884-48.496-51.907-75.37c-5.291-9.468-17.652-17.418-8.083-27.919
		c8.687-9.532,24.11-8.23,34.577-2.792c44.257,22.988,95.009,19.172,140.718,35.825c15.811,5.76,25.731-9.557,47.88-15.956
		c-37.336-15.61-68.498-32.405-90.192-52.902c-33.882-32.01-76.517-59.503-95.294-105.632
		c-6.543-16.076-18.616-28.054-23.115-46.477c-13.234-54.195,23.671-82.005,52.118-116.173
		c47.136-56.612,103.443-103.453,160.164-149.111c95.25-76.67,186.103-158.919,289.372-225.707
		c52.823-34.165,104.151-70.379,160.383-98.981c8.428-4.287,16.834-4.636,25.464-5.938c14.161-12.016,34.588,0.313,48.544-12.498
		c3.643-0.385,7.284-0.767,10.926-1.149c18.541-13.185,42.98,2.596,61.141-12.453l-0.113,0.041
		c14.381-10.993,31.133-5.129,46.846-6.491C3207.675,1883.64,3219.954,1886.75,3230.157,1878.341z"/>
	<path fill-rule="evenodd" clip-rule="evenodd" fill="#035644" d="M5966.089,3401.372c66.211-5.228,131.029,10.685,196.125,17.042
		c70.146,6.849,140.66,14.567,210.805,23.572c8.049,1.034,15.736,1.057,16.574,11.773c0.74,9.436-4.248,12.362-12.664,15.929
		c-88.988,37.698-166.113,94.491-244.047,150.491c-59.676,42.877-113.029,92.566-167.203,141.591
		c-30.299,23.091-56.385,50.418-80.32,79.899l0,0c-10.207,7.671-17.375,18.437-27.084,26.62
		c-72.57,76.866-140.959,157.455-202.23,243.457c-82.301,115.514-159.217,234.835-201.355,371.943
		c-17.301,56.288-17.695,115.346-14.477,174.44c6.543,120.137,44.705,232.938,84.885,343.872
		c33.346,92.065,65.266,185.798,115.195,271.316c3.234,5.538,3.75,12.663,5.529,19.048c30.402,45.936,50.232,97.178,73.648,146.618
		l-0.045-0.091c10.096,22.787,24.346,43.49,33.447,66.773c18.553,15.273,21.805,38.279,29.74,58.906
		c-159.777-59.047-315.363-128.799-476.115-185.344c-57.602-20.262-116.188-36.244-176.66-44.553
		c-84.488-11.613-139.676,32.002-156.552,114.229c-53.157,259.041,11.147,491.303,155.228,706.546
		c10.467,15.639,20.09,31.847,29.9,47.912c0.832,1.37,0.109,3.683,0.109,7.632c-104.066-35.188-209.361-63.475-316.942-82.395
		c-203.056-35.715-404.56-40.674-602.817,29.134c-54.963,19.354-98.164,54.567-139.886,92.582
		c-101.547,92.528-195.904,191.385-277.444,302.679c-34.621,47.264-36.928,84.939-7.688,137.859
		c121.251,219.449,258.816,427.324,415.069,623.381c168.768,211.762,355.32,405.984,565.396,576.689
		c222.214,180.566,458.911,339.4,719.063,461.242c3.734,1.748,7.109,4.264,8.889,11.141
		c-51.143-16.646-102.719-32.076-153.361-50.135c-288.646-102.932-563.857-233.113-818.301-405.232
		c-167.5-113.303-324.125-240.295-461.002-388.959c-294.955-320.346-510.009-687.893-640.264-1104.529
		c-62.775-200.79-103.659-406.578-147.23-611.861c-5.475-25.796-13.129-51.233-21.333-76.326
		c-16.073-49.169-28.294-56.096-80.911-50.598c-91.76,9.586-180.195,34.561-268.691,58.713
		c-280.501,76.57-556.528,168.012-834.707,252.308c-127.975,38.781-256.994,73.788-386.147,108.542
		c-99.557,26.791-172.316-2.246-235.014-76.176c-56.813-66.988-100.853-142.172-141.57-219.503
		c-1.284-2.438-0.164-6.144-0.164-12.892c48.254,30.271,94.182,59.877,140.901,88.178c53.961,32.681,109.676,62.102,167.88,86.732
		c28.741,12.162,56.995,13.881,87.319,5.206c157.915-45.177,305.553-115.925,454.703-182.64
		c321.911-144.004,638.357-299.969,961.771-440.688c79.076-34.404,158.17-69.251,241.857-91.779
		c55.627-14.975,68.258-9.861,95.254,41.65c41.967,80.073,64.102,167.029,86.039,253.841
		c74.82,296.056,127.49,596.457,174.848,897.878c0.27,1.703,2.389,3.111,7.342,9.21c8.297-50.665,15.516-97.564,23.719-144.294
		c25.777-146.838,49.707-294.145,98.816-435.664c25.408-73.209,34.71-96.261,141.688-101.13
		c130.06-5.913,257.974,18.798,386.441,34.872c89.898,11.248,179.5,29.947,270.898,19.322c50.154-5.833,59.438-18.855,47.451-67.543
		c-18.915-76.828-57.402-145.578-92.141-215.787c-70.115-141.701-150.816-278.154-210.885-424.832
		c-11.693-28.555-23.345-57.3-28.577-87.939c-7.53-44.09,5.271-62.349,50.784-72.438c64.561-14.313,129.846-10.979,195.26-8.427
		c63.012,2.46,125.503,15.165,188.898,9.429c68.038,3.924,135.092,12.302,201.889,27.936c39.008,9.128,80.705,7.477,121.113,15.142
		c38.471,7.301,45.221-2.49,30.791-38.849c-32.021-80.672-50.701-164.974-71.844-248.671c-5.469-21.645-9.105-43.385-8.248-65.737
		c1.961-50.972-20.303-99.481-13.658-151.253c11.672-90.943,25.008-179.719,64.4-265.52
		c48.594-105.842,113.447-199.977,180.471-293.405c27.037-37.69,59.381-71.511,89.916-106.571
		c17.621-20.239,16.244-28.992-7.639-34.013c-61.848-13.013-120.699-35.979-181.104-53.286
		c-112.529-32.248-225.885-61.818-338.066-95.407c-32.674-9.787-67.742-12.067-97.909-30.021
		c-26.513-11.156-52.558-23.945-82.491-22.825c-75.16-18.229-149.35-38.984-223.033-63.256
		c-95.261-31.369-194.395-50.909-290.004-82.126c-112.371-36.689-228.361-60.475-340.751-97.317
		c-85.997-28.191-175.093-46.245-260.856-75.553c-27.141-9.275-55.068-15.579-82.67-23.119
		c-36.91-8.877-70.706-25.454-104.047-47.886c452.149,31.679,904.297,63.355,1356.443,95.036
		c51.18,12.241,103.969-0.945,154.795,8.146c58.957,10.546,119.309,3.761,176.85,14.311c42.82,7.85,84.807,8.515,127.021,9.573
		c74.6,1.874,148.439,12.839,222.594,18.481c55.77,4.247,112.467,2.087,167.236,11.623c43.518,7.574,86.492,10.078,130.082,10.844
		c15.66,10.954,33.482,4.734,50.316,6.218c12.697,1.121,26.053-2.313,37.637,5.873c8.414,0.223,16.832,0.444,25.246,0.667
		c16.621,12.195,35.73,4.91,53.66,6.799C5929.946,3397.552,5948.86,3391.411,5966.089,3401.372z"/>
	<path fill-rule="evenodd" clip-rule="evenodd" fill="#035644" d="M1733.378,4399.852c-56.302-37.922-97.685-87.53-136.567-139.514
		c-91.172-121.894-159.501-257.295-231.72-390.445c-10.638-19.61-15.421-48.314-40.708-53.027
		c-48.907-9.113-99.931-17.702-147.583,1.661c-22.567,9.169-24.375,37.406-25.251,61.231
		c-2.891,78.553,17.572,153.093,37.918,227.834c19.385,71.212,45.637,140.051,73.015,214.601
		c-60.558-17.658-107.128-49.002-148.738-88.493c-99.593-94.525-168.647-210.068-225.795-333.241
		c-9.429-20.325-17.296-24.916-39.024-18.59c-41.441,12.062-54.212,4.867-71.876-35.723
		c-26.076-59.911-45.699-122.218-63.581-184.943c-5.267-18.464-14.551-27.234-32.297-32.624
		c-51.972-15.778-101.294-37.921-149.247-63.656c-40.764-21.88-68.237-53.139-75.504-98.898
		c-13.494-84.957-15.837-170.66-10.927-257.481c18.133,44.501,35.133,89.51,54.824,133.31c11.723,26.072,26.19,51.229,42.03,75.064
		c35.819,53.891,94.405,66.403,152.018,78.624c31.278,6.634,63.377,9.392,98.182,14.334c-9.639,34.111-33.356,59.439-52.888,85.963
		c-20.783,28.23-21.188,46.645,5.178,72.441c31.453,30.775,58.069,66.601,90.299,97.125c17.055,16.156,27.675,17.781,32.457-8.847
		c3.71-20.662,7.997-41.256,12.941-61.657c8.088-33.371,22.189-42.543,55.588-33.143c23.29,6.554,45.917,15.949,68.146,25.656
		c36.537,15.962,73.02,17.472,109.252,0.981c53.42-24.317,103.713-22.263,153.994,10.146c25.815,16.639,52.306,32.766,81.532,44.285
		c28.052,11.058,49.31,5.078,68.824-15.552c22.078-23.344,43.526-47.351,66.641-69.63c37.3-35.95,54.186-37.197,95.466-7.705
		c41.359,29.549,82.332,59.674,122.774,90.467c24.161,18.396,48.576,20.794,72.914,3.184c36.394-26.325,69.181-18.712,103.661,4.736
		c42.979,29.23,86.395,57.871,131.913,83.325c23.715,13.265,46.375,14.697,63.623-4.355c49.545-54.74,111.904-57.189,178.922-52.789
		c102.809,6.752,206.034,7.546,308.745,15.313c58.49,4.422,109.43,33.457,156.446,67.862
		c65.712,48.09,118.668,108.552,165.889,175.385c8.424-10.985,0.189-18.259-2.693-25.115
		c-39.235-93.403-97.714-172.513-176.968-236.042c-49.252-39.479-105.633-59.161-168.316-62.549
		c-169.687-9.175-338.93,3.669-508.144,12.007c-72.431,3.57-136.952-15.629-201.191-44.327
		c-102.881-45.965-203.933-99.385-319.139-107.024c-102.012-6.766-204.09,0.112-304.792,17.047
		c-56.771,9.547-108.489,11.02-162.286-17.215c-69.983-36.723-144.253-65.274-220.394-98.989
		c27.56-22.399,57.076-31.643,84.924-43.633c99.226-42.72,200.732-44.546,305.964-23.483
		c192.848,38.602,383.583,86.42,575.834,127.546c87.271,18.671,175.1,26.289,263.989,24.996
		c142.995-2.083,285.98-5.216,428.981-6.157c60.921-0.401,121.934,2.492,182.793,5.887c83.471,4.659,143.747,56.035,199.186,109.734
		c203.156,196.783,323.154,437.426,367.872,716.183c7.202,44.898,10.831,90.072,13.556,135.472
		c1.801,29.968-5.393,47.753-35.973,60.113c-65.516,26.471-130.91,54.705-190.552,92.864
		c-97.444,62.35-182.255,141.097-265.351,220.602c-179.306,171.565-370.121,329.723-561.055,487.67
		c-44.849,37.099-105.994,48.745-159.175,73.149c-41.219,18.913-83.244,36.074-124.958,53.897
		c-21.262,9.087-35.257,23.078-43.67,46.082c-12.707,34.751-25.104,36.939-58.021,20.881
		c-59.476-29.012-88.862-80.303-106.944-140.454c-5.951-19.792-11.514-39.703-20.297-59.301
		c-10.49,37.491-7.604,75.329-4.253,112.919c2.05,23,8.198,45.615,10.582,68.604c5.207,50.197,29.641,72.914,80.729,77.558
		c37.385,3.397,69.998-9.213,101.64-25.328c109.325-55.666,220.926-107.615,326.245-170.11
		c60.958-36.17,111.943-89.353,166.718-135.708c263.621-223.087,526.926-446.564,805.586-651.019
		c32.014-23.49,63.888-47.563,100.743-63.71c9.155-4.012,18.694-12.3,26.594-1.877c6.13,8.091-2.063,16.785-6.866,23.819
		c-42.649,62.466-95.551,116.267-147.836,170.222c-289.113,298.339-593.678,580.497-900.81,860.032
		c-54.945,50.01-121.947,60.135-188.227,73.547c-163.491,33.084-327.693,62.647-491.637,93.479
		c-2.796,0.527-5.947-0.832-11.325-1.693c57.239-42.578,118.003-76.779,170.108-122.813c6.321-5.585,17.81-9.274,13.674-20.073
		c-3.697-9.648-14.493-8.289-23.375-8.496c-37.657-0.875-75.185-1.473-112.775,3.687c-23.684,3.251-34.975,15.979-38.838,37.89
		c-1.152,6.537-2.012,13.127-3.15,19.668c-7.052,40.503-6.702,39.481-44.132,26.156c-54.801-19.514-111.137-23.965-165.601-1.331
		c-29.941,12.441-35.866-1.742-36.377-24.571c-0.962-43.21-0.911-86.506,0.806-129.685c0.61-15.327-2.228-27.097-10.556-40.065
		c-57.373-89.355-85.325-212.789-71.624-317.29c28.837,33.733,58.686,62.546,96.138,81.924c4.902,2.534,9.316,6.011,14.218,8.548
		c76.154,39.439,88.314,36.211,133.323-36.109c19.29-30.994,41.038-60.889,56.614-93.684
		c43.881-92.4,128.902-140.246,206.421-196.576c145.007-105.367,292.676-207.065,434.931-316.24
		c18.258-14.015,26.387-31.539,30.218-52.958c11.263-62.988,7.388-125.972-0.757-188.739
		c-6.503-50.125-33.707-90.515-65.552-128.091c-97.473-115.016-200.349-224.951-308.533-329.992
		c-37.136-36.061-82.936-53.408-131.386-65.153c-25.074-6.079-39.555,3.34-38.433,32.713
		c4.203,110.015,26.649,217.157,49.616,324.201C1710.498,4311.256,1722.482,4355.437,1733.378,4399.852z"/>
	<path fill-rule="evenodd" clip-rule="evenodd" fill="#F0D2C8" d="M1198.202,4933.739c-25.129-25.272-37.053-59.369-58.113-87.435
		c-4.336-5.776-4.646-17.552-13.537-15.878c-11.859,2.237-6.113,14.383-7.428,22.396c-2.947,17.938,6.452,37.472-6.988,54.062
		c-22.158,48.658-53.443,92.103-61.846,148.151c-23.015,153.555-20.29,304.359,25.343,453.918
		c17.414,57.076,31.492,115.314,40.355,174.684c29.65,198.576,123.337,363.322,269.893,498.134
		c97.932,90.087,212.68,116.409,344.936,93.761c152.689-26.143,297.762-77.01,445.63-119.21
		c43.581-12.44,85.854-30.087,131.205-36.175c16.474,3.844,32.136,2.76,48.798-2.324
		c162.096-49.408,323.011-102.887,486.125-148.592c58.866-16.494,115.952-44.973,180.778-39.606
		c51.035,4.222,87.788,27.366,106.936,75.517c18.549,46.652,27.609,95.85,38.672,144.48
		c32.498,142.861,72.256,283.521,120.871,421.864c39.4,112.118,90.227,218.813,139.514,326.714
		c90.104,197.248,209.078,374.93,338.717,547.287c82.924,110.246,172.841,213.815,273.37,307.532
		c182.196,169.841,379.383,320.026,595.752,444.774c247.98,142.973,509.077,255.422,780.745,344.303
		c35.947,11.76,72.361,21.807,110.234,23.934c89.42,5.025,158.537-30.906,209.551-104.26
		c43.293-62.262,74.518-131.137,108.957-198.078c52.24-101.533,104.102-203.288,155.283-305.381
		c57.609-114.93,118.816-228.025,177.25-342.551c135.035-264.639,272.805-527.832,413.457-789.561
		c66.646-124.009,132.643-248.41,202.564-370.531c57.248-99.99,117.705-198.949,202.365-279.162
		c55.014-52.123,115.938-93.248,192.297-113.362c85.813-22.606,156.969,7.313,228.264,44.777
		c31.422,16.513,62.393,33.78,94.979,47.938c29.93,13.007,59.941,24.285,92.91,10.058c9.569-4.131,19.704,1.561,29.538-0.461
		c1.078,0.008,2.156-0.023,3.229,0.039c15.195,0.867,26.105,24.357,39.514,14.776c14.045-10.032-6.152-27.368-2.045-42.132
		c39.758-95.156,7.082-185.019-20.803-274.906c-56.202-181.2-167.517-327.356-294.112-464.424
		c-96.299-104.264-202.691-197.636-306.709-293.652c-17.094-15.781-34.221-31.627-48.928-49.682
		c-10.752-13.193-19.744-27.871-9.594-45.404c9.695-16.744,26.361-19.577,43.525-17.572c27.646,3.235,53.74,12.581,79.609,22.606
		c95.674,37.071,180.355,94.523,268.539,145.358c56.648,32.659,113.746,59.482,181.607,46.036
		c19.869,9.862,39.736,19.721,66.444,32.976c-14.609-29.418-24.507-53.07-26.739-78.896c6.94-33.684,17.751-66.363,30.335-98.12
		c19.697-49.725,50.822-64.854,102.98-53.106c89.068,20.055,171.213,60.271,257.363,88.703
		c60.779,20.06,123.018,38.963,188.041,15.771c35.736,4.633,66.18,24.064,99.373,35.814c18.141,6.419,18.213,18.75,4.379,29.663
		c-24.598,19.409-51.398,32.003-84.318,34.349c-87.102,6.207-164.982-25.963-244.256-53.531
		c-53.186-18.496-103.822-45.041-159.32-55.932c-66.135-12.982-81.813-4.781-96.434,51.61
		c-6.051,23.324-14.641,46.523-25.684,67.917c-29.412,56.99-94.321,80.148-182.841,60.123
		c-48.84-11.049-93.998-32.201-140.352-50.088c-10.074-3.888-21.729-13.416-30.49-3.303c-10.191,11.764,1.547,23.11,8.678,31.932
		c32.584,40.311,64.658,81.182,99.469,119.534c163.994,180.677,276.628,387.628,324.979,628.001
		c11.119,55.291,9.006,109.187-14.752,161.463c-23.545,51.811-66.461,70.08-119.805,73.713
		c-72.521,4.943-132.88-26.973-193.481-59.986c-50.361-27.438-99.188-59.379-157.986-66.602
		c-72.82-8.945-133.75,18.715-190.277,61.75c-83.559,63.617-142.928,147.393-195.908,235.741
		c-104.734,174.644-198.695,355.315-294.922,534.724c-119.385,222.584-234.684,447.24-349.885,672.01
		c-126.852,247.494-255.906,493.85-380.852,742.344c-30.188,60.035-61.275,120.387-105.584,171.951
		c-46.592,54.23-104.387,87.34-177.451,91.223c-59.545,3.166-116.211-8.563-172.428-27.018
		c-207.346-68.053-410.384-146.732-605.261-245.334c-217.622-110.113-422.671-239.734-612.379-393.654
		c-99.801-80.975-195.646-166.059-284.138-259.054c-153.6-161.421-283.498-341.048-399.154-531.054
		c-134.165-220.413-236.491-455.301-314.08-701.117c-40.555-128.473-71.869-259.436-103.029-390.42
		c-19.049-80.095-55.262-103.085-135.195-80.041c-150.694,43.453-300.701,89.289-450.87,134.536
		c-225.22,67.869-448.243,143.241-677.066,198.777c-107.329,26.047-215.234,39.645-323.345,4.413
		c-95.18-31.021-170.739-89.394-235.117-165.531c-55.345-65.444-102.415-135.407-141.741-211.486
		c-46.244-89.468-71.177-184.403-88.591-283.084c-15.678-88.832-43.142-175.533-60.529-264.129
		c-15.475-78.857-21.907-158.289-13.284-239.889c8.104-76.68,10.785-153.879,28.947-229.196
		c8.106-33.616,21.333-65.87,44.124-92.036c56.34-64.682,148.329-72.419,218.214-19.057c25.394,19.391,49.82,40.191,73.461,61.696
		c28.275,25.727,58.731,21.389,85.348,2.578c67.556-47.744,135.584-95.311,195.486-152.8c32.05-30.758,30.794-61.655-1.73-91.75
		c-27.607-25.542-59.215-41.143-98.618-40.01c-107.475,3.084-213.37,0.433-317.226-37.69
		c-146.727-53.861-266.104-141.521-360.882-264.595c-47.784-62.056-92.059-127.479-145.405-184.354
		c-38.359-40.898-81.986-76.959-114.016-123.768c-13.074-19.104-26.948-38.13-36.697-58.956
		c-32.483-69.378-83.142-121.701-146.163-163.609c-123.601-82.2-185.305-200.984-201.669-345.659
		c-12.861-113.696-24.038-227.352-44.499-340.308c-27.174-150.001,14.367-283.173,126.345-388.818
		c68.703-64.814,153.786-103.1,244.257-128.967c176.891-50.58,357.723-64.166,540.873-60.558
		c77.116,1.519,155.159,8.691,231.151-12.687c141.337-39.762,282.295-80.905,423.9-119.683
		c81.73-22.382,141.044-68.351,179.188-145.232c72.903-146.95,179.832-266.397,303.617-373.029
		c128.167-110.409,265.974-205.373,418.998-277.137c150.772-70.705,309.95-116.426,472.697-150.022
		c119.677-24.705,240.012-45.491,361.405-60.161c120.323-14.541,240.81-25.898,361.778-34.468
		c121.936-8.637,243.918-8.692,365.269-3.311c156.98,6.964,304.259,60.059,449.399,117.928
		c126.086,50.274,251.045,104.527,385.586,129.741c29.184,5.471,58.59,8.924,88.506,10.694
		c110.475,6.532,221.129,2.759,331.084-2.535c127.477-6.137,254.691-2.605,381.994-4.492
		c180.635-2.679,351.619,38.511,516.32,112.45c407.676,183.009,802.967,391.166,1203.209,589.263
		c119.11,58.952,238.796,117.548,353.487,184.425c150.18,87.57,312.596,152.587,456.779,250.563
		c47.791,32.477,84.199,75.124,95.264,134.419c2.188,11.721,5.449,25.557-5.184,34.518c-11.035,9.295-20.393-2.676-30.08-6.384
		c-31.949-12.218-62.197-27.76-89.959-47.907c-64.725-102.216-174.877-141.554-273.445-196.49
		c-80.379-44.797-164.482-82.691-244.996-127.148c-48.422-26.732-95.502-55.493-145.541-79.69
		c-109.63-53.01-217.63-109.473-325.972-165.016c-95.592-49.001-190.988-98.731-287.412-145.886
		c-128.365-62.776-256.303-126.557-384.52-189.59c-148.25-72.879-298.016-142.438-449.814-206.869
		c-82.051-34.826-171.904-50.61-261.871-58.873c-143.955-13.224-288.363-9.014-432.197-4.481
		c-83.902,2.645-168.23,4.693-252.275,9.044c-132.027,6.835-263.335-6.041-390.637-48.033
		c-94.926-31.314-185.825-72.486-278.955-108.127c-109.906-42.064-222.269-77.063-337.93-98.138
		c-45.082-8.216-92.455-9.229-139.045-9.978c-62.023-0.998-124.263,4.458-186.02-5.895c-8.703-1.461-17.77-1.071-26.578-0.007
		c-206.642,25.002-415.006,34.701-620.275,72.195c-150.48,27.485-300.418,56.528-445.715,105.613
		c-242.406,81.892-453.681,212.978-639.041,390.034c-91.129,87.046-169.82,181.982-226.705,292.841
		c-55.752,108.656-144.66,170.06-257.271,198.873c-128.969,33-253.46,80.68-382.464,112.377
		c-54.077,13.286-110.613,24.281-167.83,13.87c-16.403-2.983-33.218-1.131-49.847-1.507c-57.583-1.307-115.387,4.027-172.7-5.979
		c-8.694-1.518-17.855-1.529-26.566-0.076c-126.56,21.12-255.769,26.767-379.118,66.771
		c-74.638,24.206-144.061,57.44-201.571,111.538c-92.373,86.894-122.202,195.876-101.875,317.981
		c16.587,99.644,29.357,199.351,36.628,300.11c4.055,56.207,15.936,111.751,36.446,165.158
		c30.06,78.273,92.17,129.64,153.182,180.33c48.969,40.684,97.375,80.567,129.998,136.002c37.76,64.165,77.524,126,133.351,177.207
		c74.827,68.634,125.042,158.133,190.741,234.601c62.346,72.561,129.312,141.697,216.184,184.57
		c83.617,41.269,170.823,76.082,266.828,72.217c31.352-1.261,63.21-4.454,94.211-11.564c8.523-0.992,13.678-5.388,14.397-14.259
		c84.921,14.101,154.304,55.711,212.447,118.289c47.868,51.517,48.186,98.037,1.298,149.144
		c-25.779,28.103-56.746,49.58-87.145,71.464c-59.419,42.777-114.735,90.359-170.262,137.842
		c-58.308,49.868-108.819,47.804-167.497-7.025C1257.172,4954.345,1233.703,4932.926,1198.202,4933.739z"/>
	<path fill-rule="evenodd" clip-rule="evenodd" fill="#C62232" d="M4795.302,3614.855c59.061,16.534,118.715,30.658,176.934,50.559
		c49.873,17.043,101.564,28.714,152.361,43.091c52.842,14.957,106.887,24.613,158.488,45.412
		c40.594,16.36,84.697,25.019,127.98,33.168c15.492,2.915,28.252,9.653,35.295,19.53c4.979,6.98-8.166,19.287-15.492,26.81
		c-90.318,92.743-165.281,198.082-227.979,309.744c-45.945,81.829-89.617,167.583-98.314,266.489
		c-4.055,46.123-12.527,92.307-8.506,138.305c9.086,103.914,22.463,207.218,54.512,307.428
		c14.084,44.043,28.354,87.896,45.234,130.907c9.172,23.376-0.701,31.009-22.918,28.021c-58.76-7.908-117.475-15.833-176.04-25.418
		c-42.784-7.001-85.587-21.275-130.28-16.216c-15.741,1.781-30.69-1.504-42.844-12.868c26.303-16.282,57.986-20.312,83.85-38.243
		c39.051-27.072,50.627-53.981,35.404-99.359c-26.188-78.079-77.941-140.802-127.091-204.823
		c-71.392-92.996-147.709-182.224-210.984-281.393c-18.563-29.099-34.309-59.316-46.832-91.098
		c-35.099-89.08,0.278-161.605,92.359-189.457c61.356-18.556,123.199-35.512,184.781-53.328c6.267-1.813,12.537-4.047,18.317-7.03
		c55.195-28.488,59.927-57.755,11.737-95.72c-78.696-61.999-168.255-106.492-257.313-151.089
		c-297.825-149.141-603.153-281.745-909.69-411.716c-61.682-26.154-125.359-47.943-184.229-80.595
		c53.086-5.761,98.811,21.634,147.928,33.498c56.629,13.677,112.428,30.806,168.512,46.7c34.381,9.743,68.633,19.922,102.912,30.011
		c40.289,11.857,80.221,25.098,120.887,35.468c70.865,18.073,140.501,39.825,210.204,61.873
		c37.787,11.953,76.958,21.06,115.352,32.004c52.773,15.047,106.817,24.541,158.259,45.787
		c39.408,16.274,82.861,22.734,124.471,33.732c16.775,4.438,33.427,9.338,50.136,14.023
		C4739.566,3599.815,4767.524,3607.034,4795.302,3614.855z"/>
	<path fill-rule="evenodd" clip-rule="evenodd" fill="#DF9B8D" d="M1477.85,4521.244c-0.556,5.927-2.664,10.83-9.208,11.985
		c-111.021,19.605-213.785-2.396-317.172-47.163c-95.885-41.522-166.979-109.491-237.617-180.766
		c-49.202-49.648-84.288-110.492-127.915-164.614c-34.609-42.937-70.624-84.417-111.549-121.604
		c-49.219-44.722-77.338-104.744-111.29-160.086c-26.189-42.691-60.234-78.749-99.167-105.998
		c-53.067-37.144-97.712-82.937-139.28-129.754c-37.573-42.321-53.805-100.523-64.703-158.069
		c-16.252-85.815-15.064-173.308-27.252-259.301c-9.575-67.567-26.852-133.711-26.368-202.974
		c0.812-116.831,55.467-202.438,144.715-272.221c96.438-75.401,210.492-98.783,326.4-121.833
		c69.347-13.791,140.361-12.343,209.031-30.106c31.313-8.099,63.651,2.979,95.559,4.527c67.368,3.273,134.806,1.008,202.345,4.382
		c50.153,2.504,102.7-4.944,152.556-22.136c51.104-17.621,104.061-29.786,155.759-45.778
		c52.708-16.304,103.932-38.641,157.548-50.386c48.732-10.678,94.623-27.03,140.584-45.055
		c62.803-24.627,107.478-69.112,139.633-126.552c51.922-92.745,107.73-183.209,180.12-261.093
		c49.462-53.216,105.057-101.063,160.355-148.456c106.147-90.977,221.321-168.939,348.494-227.855
		c137.305-63.609,279.774-110.599,427.843-144.25c141.941-32.262,285.375-53.563,428.781-75.667
		c73.916-11.394,149.645-11.187,223.459-23.031c59-9.468,119.202,3.109,177.621-16.717c32.623-11.071,67.783,4.928,102.027,4.533
		c85.254-0.985,171.15-4.619,255.309,8.061c84.943,12.796,167.795,37.726,249.653,64.971
		c99.398,33.083,194.938,75.902,292.667,113.146c110.713,42.19,223.844,68.392,343.619,75.965
		c110.021,6.956,219.063-1.373,327.982-5.023c142.99-4.791,285.844-4.178,428.623-2.68c92.473,0.968,182.814,24.803,272.975,46.695
		c55.865,13.566,103.949,43.094,155.893,64.158c98.836,40.081,195.4,86.331,290.73,134.341
		c100.35,50.536,202.455,97.416,302.094,149.556c72.275,37.818,145.016,75.622,218.688,110.317
		c125.723,59.209,247.541,125.852,372.592,186.18c75.371,36.36,150.45,73.453,224.374,112.636
		c46.781,24.794,90.264,55.341,137.951,79.142c97.84,48.835,193.955,101.106,291.166,151.21
		c50.432,25.992,95.068,60.269,139.479,94.831c16.939,13.182,14.273,37.561,25.512,54.544
		c-200.709-98.641-400.111-199.95-596.186-307.441c-206.726-113.336-417.671-218.272-627.882-324.761
		c-262.602-133.021-526.451-263.475-794.576-384.991c-85.412-38.71-170.611-80.179-265.287-93.262
		c-125.617-17.36-252.035-16.337-378.301-13.385c-167.342,3.914-334.629,9.855-502.002,13.354
		c-127.947,2.674-247.23-27.593-364.844-73.546c-131.827-51.503-261.839-107.783-396.842-151.1
		c-79.578-25.531-160.674-40.7-244.106-42.407c-177.423-3.628-354.032,6.75-530.733,24.027
		c-194.1,18.979-386.226,48.629-576.242,91.046c-250.74,55.972-480.32,158.183-682.326,319.869
		c-90.194,72.192-175.1,149.523-250.207,237c-49.422,57.567-75.548,129.721-112.376,195.178
		c-19.011,33.789-36.015,68.702-54.162,102.983c-7.816,14.765-17.004,26.508-35.131,32.066
		c-134.906,41.372-269.531,83.607-405.98,119.782c-60.946,16.159-122.765,30.436-181.758,52.164
		c-61.856,22.783-122.25,18.576-185.05,9.808c-85.891-11.991-172.349-7.844-258.677-1.46
		c-105.023,7.764-208.682,23.659-310.735,49.547c-82.344,20.89-161.363,48.326-221.148,113.673
		c-68.578,74.959-96.881,160.61-66.495,259.862c28.07,91.684,45.533,184.146,40.249,280.616
		c-2.613,47.707,8.095,94.752,15.662,141.715c13.952,86.586,65.924,145.328,140.135,186.758
		c37.626,21.005,75.185,42.53,117.22,53.942c15.864,4.309,17.569,17.286,22.068,29.906c23.686,66.429,40.142,135.665,82.005,194.853
		c21.484,30.38,50.265,46.8,84.487,53.47c17.415,3.394,26.032,10.107,34.242,25.531c51.687,97.102,110.971,188.993,189.235,267.476
		c76.41,76.625,162.501,134.931,270.75,158.35C1335.687,4479.509,1406.44,4501.886,1477.85,4521.244z"/>
	<path fill-rule="evenodd" clip-rule="evenodd" fill="#035744" d="M2725.75,2861.856c-1.837-19.05-13.85-32.205-27.051-43.935
		c-16.426-14.599-31.712-29.871-44.162-48.159c-29.554-43.403-25.101-83.064,17.753-114.508
		c36.211-26.57,72.287-54.097,116.667-67.669c11.64-3.561,20.871-14.997,31.208-22.815c15.103,13.096,26.379-2.231,38.331-6.296
		c35.152-11.945,68.451-29.48,109.676-37.24c-5.592,10.259-9.254,16.481-12.449,22.936c-7.854,15.873-18.951,32.736-3.818,49.07
		c14.309,15.442,34.302,14.712,52.795,9.101c34.615-10.506,62.055-33.646,90.379-54.854
		c56.492-42.298,101.72-98.091,162.566-135.285c29.258-17.884,58.227-35.837,100.621-41.748
		c-21.039,22.187-38.154,39.142-53.918,57.271c-9.311,10.706-17.402,22.752-24.387,35.133c-8.778,15.564-7.754,32.915,1.096,47.478
		c9.881,16.256,27.273,17.654,44.498,13.661c24.465-5.676,46.48-14.362,67.859-30.11c32.463-23.911,68.629-43.737,105.707-57.26
		c9.488,6.342,3.668,10.896,2.295,15.562c-10.807,36.669,1.643,60.01,37.866,71.409c64.403,20.265,126.334,5.043,183.824-21.217
		c70.527-32.217,144.245-53.076,218.052-74.114c86.352-24.609,174.762-38.979,264.541-43.999c7.46-0.418,14.961-0.056,22.813,1.89
		c-77.408,22.222-154.582,45.001-225.73,82.45c-126.709,66.699-256.3,129.379-363.754,226.785
		c-16.216,14.703-29.614,14.708-47.275,7.479c-42.285-17.309-78.664-44.949-117.885-67.524
		c-48.928-28.166-96.78-25.611-146.086-4.962c-20.449,8.564-37.256,22.461-37.549,46.179c-0.281,22.899,8.818,41.971,30.383,55.025
		c41.676,25.229,89.045,32.213,134.641,44.795c43.936,12.123,86.684,26.614,125.066,51.858c10.781,7.09,21.713,14.131,30.043,30.71
		c-69.941-10.762-135.473-8.861-199.922,10.329c-40.762,12.138-78.719,29.202-112.019,56.295
		c-40.53,32.977-35.877,69.211,11.897,91.242c47.184,21.759,97.944,28.119,148.506,31.318
		c162.949,10.317,325.635,3.956,488.215-10.593c36.186-3.238,72.422-11.149,110.004-3.31
		c-67.818,14.828-135.508,30.277-203.48,44.361c-162.383,33.646-325.33,64.426-488.111,96.002
		c-100.424,19.48-183.955-4.423-267.035-56.768c-115.404-72.704-227.308-149.745-330.423-239.138
		C2755.468,2867.832,2741.357,2863.631,2725.75,2861.856z"/>
	<path fill-rule="evenodd" clip-rule="evenodd" fill="#E09D90" d="M2310.634,6125.074
		c-161.754,46.992-321.097,102.028-485.165,141.426c-81.128,19.479-162.797,30.738-245.333,23.76
		c-60.438-5.11-113.882-35.966-162.304-70.945c-80.72-58.307-139.208-137.443-194.976-218.803
		c-43.083-62.852-73.122-132.088-90.687-204.848c-13.301-55.094-24.276-111.242-36.088-166.914
		c-15.24-71.828-36.733-142.316-52.498-214.049c-23.442-106.664-22.128-214.119-6.238-321.98
		c4.341-29.458,9.476-58.635,15.146-87.805c7.8-40.105,36.037-67.629,59.645-98.032c-4.724,91.655-15.984,182.729-24.073,274.081
		c-11.612,131.123,1.419,258.913,63.965,377.759c10.072,19.142,16.505,38.194,14.103,60.226
		c-14.024,128.641,39.246,237.987,101.753,343.633c50.95,86.105,111.665,163.932,193.409,224.977
		c74.577,55.688,154.958,65.485,242.146,46.314c235.728-51.837,464.188-129.066,694.698-199.155
		c184.088-55.968,368.378-111.272,552.685-166.508c9.293-2.786,19.609-2.149,29.449-3.104c31.01-10.105,63.663-4.082,95.137-9.688
		c8.619-1.531,14.579,3.142,20.201,8.953c11.644,12.031,25.596,22.129,40.143,29.011c39.219,18.554,49.309,53.39,56.992,90.937
		c8.374,40.918,14.115,82.295,22.088,123.291c1.943,9.999,4.986,18.949,9.87,27.575c0.847,1.493,0.114,3.509,1.577,4.802
		c-0.205-3.459,0.906-6.391,3.504-8.724c21.759,80.749,41.821,161.997,65.634,242.135
		c44.813,150.806,98.794,298.132,164.173,441.608c87.104,191.15,194.248,369.992,319.025,538.354
		c135.484,182.8,289.982,347.385,466.369,492.271c209.783,172.315,438.059,314.312,682.074,431.464
		c154.59,74.223,314.342,136.258,477.238,190.158c56.568,18.717,114.92,32.881,167.873,61.568
		c-5.99,31.641-30.17,26.613-51.689,24.742c-68.313-5.943-130.309-33.744-194.221-55.658
		c-106.998-36.689-211.852-78.633-315.4-123.795c-48.615-21.203-97.57-41.832-144.17-67.803
		c-51.196-28.533-105.197-51.621-156.475-80.455c-106.154-59.701-210.257-122.258-309.721-192.717
		c-130.038-92.11-251.648-194.256-366.926-303.991c-31.951-30.415-63.738-61.028-89.383-97.992
		c-18.016-25.97-46.184-43.717-67.531-68.09c-68.735-78.476-129.164-163.089-190.293-247.304
		c-131.953-181.782-235.324-379.33-323.27-585.331c-55.305-129.546-100.439-262.891-138.701-398.256
		c-21.902-77.491-41.386-155.909-56.844-235.146c-6.584-33.749-14.549-67.244-26.74-99.504
		c-25.428-67.284-78.602-97.295-147.766-79.872c-58.989,14.86-117.162,33.779-175.661,49.744
		c-75.736,20.662-150.909,43.664-226.174,65.593C2496.831,6060.486,2401.308,6085.776,2310.634,6125.074z"/>
	<path fill-rule="evenodd" clip-rule="evenodd" fill="#F0D1C7" d="M9492.76,4155.295c53.168,8.953,106.48,17.144,159.375,27.496
		c10.561,2.065,28.924-0.017,30.566,13.345c1.818,14.864-6.598,29.19-21.881,38.013c-42.941,24.787-88.613,40.359-138.373,39.972
		c-73.953-0.571-147.064-11.397-219.953-22.553c-118.48-18.139-236.725-37.812-355.023-57.107
		c-116.141-18.94-232.023-39.529-348.385-56.936c-93.514-13.988-187.52-24.775-281.414-36.106
		c-76.418-9.227-152.975-17.319-229.506-25.589c-33.973-3.672-68.457-4.729-102.271-5.931c-56.311-2-112.328-11.5-168.736-8.355
		c-76.469,4.261-152.607-13.011-228.608-5.909c-78.943,7.376-159.057-0.402-237.01,18.726c-14.074,3.453-29.436,5.331-33.848,22.104
		c-4.566,17.378,9.197,26.91,20.061,35.324c40.447,31.327,87.445,51.755,132.191,75.709
		c126.004,67.461,245.384,145.038,356.456,234.724c90.361,72.959,171.582,155.631,246.137,244.905
		c73.496,88.015,153.957,170.652,214.432,268.72c30.35,49.22,52.326,102.442,35.256,163.332
		c-6.615,23.607-15.662,32.25-34.205,9.998c-17.439-20.933-43.785-34.322-52.867-62.324
		c-33.979-88.068-78.381-170.248-140.566-241.735c-35.629-40.956-70.336-82.815-107.256-122.542
		c-102.113-109.866-213.068-210.129-333.633-299.583c-12.557-9.316-26.246-16.616-39.839-24.066
		c-74.809-40.988-142.873-94.111-221.889-127.192c-59.408-24.877-111.293-63.903-172.092-86.172
		c-28.957-10.604-54.076-30.328-75.094-53.912c-33.207-37.264-27.787-65.045,17.234-85.65
		c54.652-25.01,113.797-28.541,172.238-33.252c151.637-12.225,303.687-7.866,455.526-6.402
		c101.803,0.978,203.432,10.457,305.107,17.108c264.838,17.333,526.035,61.288,787.459,103.571
		c137.793,22.289,275.654,43.842,414.072,61.757c50.783,6.576,101.896,3.53,152.852,1.862
		C9464.877,4170.132,9479.482,4163.879,9492.76,4155.295z"/>
	<path fill-rule="evenodd" clip-rule="evenodd" fill="#E09C8E" d="M9492.76,4155.295c-8.945,25.531-31.107,24.813-52.068,25.864
		c-107.629,5.391-213.438-9.883-319.172-27.399c-110.58-18.323-221.434-34.968-332.154-52.441
		c-108.631-17.146-217.035-35.845-325.922-51.113c-70.811-9.936-142.986-11.002-213.32-23.174
		c-89.457-15.474-180.033-12.648-269.668-23.825c-50.193-6.262-101.465-5.823-152.07-7.184
		c-130.723-3.51-261.763-5.044-392.368,0.198c-84.162,3.38-170.018,2.406-251.68,30.686c-65.418,22.656-69.375,42.131-21.564,90.946
		c33.734,34.444,81.424,41.393,119.881,66.146c59.459,38.271,128.779,58.707,187.262,97.427
		c68.832,45.57,143.133,81.637,209.96,131.015c74.777,55.252,145.813,114.978,212.139,178.927
		c56.059,54.054,111.07,110.332,160.244,171.988c32.779,41.103,70.732,78.725,99.211,123.008
		c29.225,45.446,68.674,86.712,71.527,145.606c0.6,12.434,19.83,19.072,12.158,34.881
		c-126.711-138.745-236.969-291.984-369.975-425.011c-144.291-144.312-313.464-254.421-494.497-347.103
		c-96.434-49.369-195.914-92.092-294.498-136.788c-4.893-2.221-9.113-5.933-13.648-8.948c-15.043-13.511-21.98-31.582-29.377-49.785
		c-19.004-46.774-19.4-46.611,17.023-79.893c2.438-2.229,5.131-4.33,6.969-7.02c22.363-32.764,54.072-45.658,92.734-43.941
		c10.014,0.444,20.057-0.269,28.85-5.11c3.943-2.171,17.93,6.929,11.195-8.788c29.115-12.735,60.813-8.984,90.994-11.693
		c157.871-14.163,316.281-18.518,474.696-13.176c204.52,6.897,408.621,21.396,611.83,45.799
		c166.809,20.029,332.533,47.475,498.02,76.685c180.609,31.88,361.873,60.037,542.898,89.569
		C9436.492,4146.235,9463.197,4159.676,9492.76,4155.295z"/>
	<path fill-rule="evenodd" clip-rule="evenodd" fill="#E8B5AA" d="M2310.634,6125.074c-5.617-10.199,0.048-12.434,8.963-15.181
		c62.053-19.108,124.744-36.591,185.625-58.963c76.866-28.247,155.903-50.461,234.446-71.181
		c95.35-25.148,186.551-68.789,286.674-73.869c58.785-2.98,100.232,25.075,119.707,81.13
		c24.49,70.493,34.471,145.007,52.869,216.894c13.215,51.635,23.676,104.625,40.971,155.516
		c25.926,76.285,49.582,153.351,76.154,229.402c11.529,33.002,29.668,64.23,41.205,96.6c14.844,41.655,32.281,81.814,49.714,122.229
		c43.802,101.544,99.029,197.152,149.854,295.084c24.277,46.771,53.368,91.99,82.994,132.527
		c42.235,57.797,78.178,120.525,125.182,175.205c41.552,48.33,76.248,102.274,120.451,148.769
		c17.399,18.308,33.23,36.894,54.145,52.242c22.398,16.437,31.846,45.48,53.889,65.198
		c65.609,58.705,124.885,124.108,194.795,178.627c28.115,21.922,51.256,58.834,80.162,71.912
		c52.135,23.586,86.386,66.623,131.58,96.809c60.951,40.713,121.047,84.018,184.088,120.406
		c79.371,45.813,155.949,98.125,242.682,130.75c37.164,13.975,69.109,37.809,105.447,54.223
		c110.52,49.926,221.275,99.449,335.92,138.531c82.846,28.24,162.002,69.301,251.365,77.688
		c21.568,2.023,39.342,2.309,52.652-16.809c12.592,5.617,25.807,7.047,39.408,5.883c46.461-27.549,81.289-68.182,116.041-107.895
		c25.424-29.047,39.449-66.584,56.182-101.287c75.098-155.719,156.189-308.416,234.258-462.602
		c67.986-134.278,139.867-266.727,207.225-401.373c42.164-84.287,91.15-164.934,132.482-249.291
		c78.508-160.223,168.717-314.156,248.414-473.531c41.182-82.358,92.08-158.652,134.613-239.922
		c46.219-88.311,97.775-173.444,157.832-253.143c68.643-91.087,150.756-167.031,260.096-204.748
		c55.16-19.031,114.551-28.356,172.172-2.81c36.457,16.161,75.08,27.763,108.947,49.385c22.057,14.083,48.23,15.81,72.014,23.693
		c30.797,10.206,58.803,26.874,90.135,34.952c14.058,1.475,22.761,12.258,33.599,19.324c-49.856,26.611-96.419,13.677-143.991-8.856
		c-45.02-21.322-87.105-47.814-132.756-68.29c-117.232-52.581-217.195-17.082-310.055,55.48
		c-115.854,90.529-186.271,215.971-258.613,340.359c-69.031,118.689-133.414,239.771-197.643,361.025
		c-37.809,71.379-77.396,141.819-115.137,213.234c-71.863,135.982-145.557,271.08-213.582,408.968
		c-54.824,111.114-113.412,220.183-169.836,330.404c-70.6,137.929-142.451,275.212-212.902,413.21
		c-41.219,80.748-78.902,163.238-126.68,240.619c-67.652,109.576-166.771,144.482-286.643,113.121
		c-117.762-30.811-230.479-77.146-344.049-120.709c-91.045-34.922-179.938-74.855-266.734-118.52
		c-160.098-80.535-316.436-168.147-462.452-272.926c-151.067-108.403-294.678-225.736-424.8-358.762
		c-74.713-76.379-143.69-157.618-208.629-242.908c-85.822-112.717-166.729-228.486-237.877-350.711
		c-35.475-60.944-70.688-122.305-96.234-189.08c-17.623-46.074-44.957-88.476-65.357-134.015
		c-66.145-147.659-116.853-300.541-158.445-456.559c-25.559-95.876-47.666-192.677-73.164-288.579
		c-26.646-100.209-92.133-107.426-169.459-87.433c-131.293,33.94-261.256,73.7-390.164,115.936
		c-74.137,24.292-150.459,41.3-223.322,69.434C2334.073,6134.911,2321.493,6136.389,2310.634,6125.074z"/>
	<path fill-rule="evenodd" clip-rule="evenodd" fill="#035745" d="M4420.577,7371.251
		c-52.967-160.054-97.99-321.558-139.335-484.099c-38.396-150.957-74.692-302.272-97.724-456.623
		c-5.169-34.625,4.555-54.447,32.508-70.711c67.758-39.417,142.884-46.254,218.307-46.804c109.862-0.8,218.211,15.64,325.658,37.731
		c184.443,37.926,364.756,90.511,542.168,153.309c6.027,2.139,11.67,5.363,16.67,2.412c-77.547,0-155.113,1.109-232.639-0.219
		c-181.781-3.115-363.508-5.104-544.76,12.598c-28.442,2.773-56.727,7.84-84.834,13.158c-62.24,11.766-80.74,32.826-89.026,96.633
		c-15.102,116.322-6.479,232.396,4.356,348.251c11.631,124.351,27.078,248.292,48.482,371.42
		C4421.702,7355.74,4420.577,7363.594,4420.577,7371.251z"/>
	<path fill-rule="evenodd" clip-rule="evenodd" fill="#F1D4CB" d="M8580.42,3476.312c17.453,0,34.902,0,60.941,0
		c-19.215-16.622-33.006-28.552-46.795-40.481c-16.094-73.762-64.803-124.17-121.049-169.229
		c-84.893-68.014-178.105-124.235-266.059-187.916c-16.26-11.774-31.213-25.025-43.576-40.772
		c-19.76-25.161-16.256-41.549,12.037-55.329c21.969-10.697,44.928-18.894,69.338-22.488c30.852-4.543,56.461-18.611,76.209-42.97
		c26.02,4.26,51.992,8.836,78.074,12.671c21.248,3.127,25.924,11.203,14.92,31.352c-14.553,26.628-40.895,39.875-61.004,60.038
		c-28.689,28.763-28.861,40.238-0.871,69.077c58.121,59.876,132.213,99.297,195.463,152.521
		c50.496,42.499,102.221,84.119,121.33,152.521c7.115,25.461,8.143,51.212,4.461,75.613
		c-12.072,79.992,29.055,125.361,95.537,154.97c118.076,52.589,237.129,103.014,354.908,156.25
		c155.057,70.082,314.807,130.18,462.502,216.037c39.908,23.197,72.234,54.564,97.182,93.025
		c7.605,11.729,12.121,26.273,14.773,40.154c2.209,11.555,4.268,28.422-1.973,35.02c-8.607,9.098-22.973-2.815-32.424-7.726
		c-46.855-24.331-99.629-35.172-144.291-64.138c-9.727-13.37-19.898-25.576-33.76-35.833
		c-87.73-64.899-184.252-113.331-283.924-156.526c-108.762-47.128-216.254-97.165-325.584-142.981
		c-73.434-30.768-146.459-62.145-216.082-101.158c-28.385-15.904-53.303-35.145-76.742-57.537
		c-29.852-28.527-32.773-63.44-30.332-101.064C8554.793,3481.574,8567.291,3479.104,8580.42,3476.312z"/>
	<path fill-rule="evenodd" clip-rule="evenodd" fill="#E09D90" d="M7601.987,6146.122c-5.199,6.237-11.227,5.249-17.916,2.585
		c-85.154-33.918-172.158-62.964-255.23-102.42c-57.447-27.277-118.393-16.631-173.986,4.618
		c-110.512,42.239-190.426,122.144-261.111,216.194c-48.555,64.604-87.324,134.922-129.83,202.523
		c-23.27,37.012-52.551,75.359-61.844,121.98c-2.299,11.529-15.787,20.697-23.736,31.248
		c-42.916,56.925-64.234,125.334-99.08,186.744c-60.244,106.18-117.209,214.338-172.18,323.362
		c-64.262,127.462-135.738,251.046-198.291,379.504c-43.418,89.167-90.947,176.669-137.639,264.357
		c-42.191,79.231-81.119,160.653-121.088,241.286c-59.307,119.631-125.207,236.045-182.57,356.557
		c-23.506,49.375-60.924,84.088-94.844,123.35c-16.385,18.963-37.66,29.52-61.055,36.684
		c134.641-168.967,203.223-374.244,306.941-560.252c79.725-142.973,153.799-289.238,226.488-435.971
		c104.102-210.15,215.279-416.555,324.813-623.822c99.285-187.882,199.729-375.19,306.586-558.918
		c55.85-96.027,118.707-187.718,203.355-260.725c80.693-69.597,169.764-123.773,282.432-123.727
		c72.227,0.025,127.492,39.333,184.568,74.74C7499.079,6078.469,7550.294,6112.688,7601.987,6146.122z"/>
	<path fill-rule="evenodd" clip-rule="evenodd" fill="#045744" d="M5034.046,6772.162
		c-73.853,53.869-150.594,101.713-222.146,156.971c-23.644,18.26-47.362,36.461-70.272,55.619
		c-35.197,29.434-31.535,72.313-32.877,111.016c-3.002,86.413,6.779,172.506,15.357,258.416
		c7.35,73.612,17.149,146.973,23.05,221.102c-30.301-56.238-45.216-117.951-67.693-176.754
		c-56.308-147.292-110.997-295.199-166.445-442.819c-17.694-47.108-13.296-59.267,32.36-82.829
		c60.73-31.338,127.162-44.219,193.091-58.398C4835.729,6793.572,4934.096,6779.932,5034.046,6772.162z"/>
	<path fill-rule="evenodd" clip-rule="evenodd" fill="#DE988A" d="M7657.025,6078.031c-27.918-88.567-52.909-178.191-84.462-265.447
		c-43.924-121.482-121.57-222.66-205.604-318.861c-149.178-170.776-325.184-311.959-501.537-452.705
		c-27.578-22.006-54.957-44.266-82.426-66.409c-12.113-21.352-31.1-38.861-26.258-68.2c5.035-30.49,51.725-67.695,81.826-59.916
		c10.902,2.818,20.945,6.353,31.703,0.838c153.393,38.777,297.453,99.607,431.268,184.07
		c69.988,44.18,139.023,89.874,208.49,134.882c0.93,13.813-10.375,14.346-17.967,12.961c-20.551-3.747-43.271-1.947-61.207-12.929
		c-41.568-25.443-83.82-50.193-126.453-73.17c-52.096-28.076-97.816-68.734-157.209-83.273
		c-13.92-3.407-27.205-10.468-38.898-18.652c-51.107-35.775-110.949-42.891-169.828-53.292
		c-14.598-2.579-30.309-2.839-39.531,10.581c-10.721,15.597-0.719,30.422,8.314,42.68c30.463,41.344,68.951,75.531,108.461,107.236
		c66.273,53.18,132.123,105.924,192.125,166.824c39.27,39.852,73.166,86.314,122.389,116.476
		c22.889,14.023,35.424,39.382,52.881,59.219c37.768,42.905,82.666,80.595,106.078,135.108
		c13.691,31.875,38.672,56.588,57.287,85.346c41.295,63.793,67.055,134.572,92.772,205.635
		c21.313,58.889,35.879,118.463,37.289,181.11C7677.098,6073.499,7677.031,6073.614,7657.025,6078.031z"/>
	<path fill-rule="evenodd" clip-rule="evenodd" fill="#DE988B" d="M8580.42,3476.312c-25.512,18.354-26.922,76.835-2.072,105.828
		c44.344,51.739,104.293,79.487,164.148,108.194c73.568,35.285,149.668,64.527,224.041,97.805
		c115.111,51.5,229.316,105.091,345.133,154.945c72.498,31.212,132.199,82.131,199.445,121.229
		c11.691,6.798,8.49,19.355,8.939,30.199c-106.615-45.561-213.402-90.713-319.803-136.769
		c-171.367-74.18-342.943-147.904-513.484-223.959c-75.65-33.737-147.877-74.714-218.338-118.491
		c-0.129-4.284,11.111-4.73,5.941-6.4c-24.473-7.896-29.789-27.492-32.936-48.45c-2.918-19.449-1.553-39.428-7.24-58.633
		c-3.852-12.994,5.105-16.029,9.629-16.527c-23.986-0.387-55.125,20.796-82.041-8.548
		C8434.662,3476.595,8507.543,3476.453,8580.42,3476.312z"/>
	<path fill-rule="evenodd" clip-rule="evenodd" fill="#E7B2A5" d="M7657.025,6078.031c29.27-20.211,10.682-50.543,7.66-70.986
		c-18.365-124.254-61.435-241.381-129.538-346.836c-28.625-44.318-54.941-90.082-84.453-133.478
		c-20.471-30.11-52.512-52.612-74.094-83.32c-35.014-49.82-86.58-83.067-128.795-125.751
		c-52.688-53.266-103.715-108.834-165.316-154.627c-63.385-47.119-126.998-96.959-177.883-159.384
		c-4.145-5.086-7.338-11.014-10.525-16.8c-7.576-13.748-16.879-29.499-6.592-43.466c10.896-14.789,29.865-19.257,47.9-15.5
		c62.256,12.959,122.801,27.178,181.875,55.848c56.535,27.438,112.969,55.98,167.619,86.302
		c48.641,26.983,95.127,59.234,144.828,84.542c23.203,11.817,51.047,25.824,80.314,11.707c23.48,7.964,37.693,29.614,59.387,40.217
		c-64.418,33.001-118.313-2.06-170.641-30.284c-94.299-50.867-181.969-113.882-282.529-153.389
		c-25.742-10.112-51.84-18.798-79.238-22.621c-14.99-2.091-29.859,0.218-36.875,15.845c-6.539,14.552,2.928,26.249,12.258,35.257
		c46.08,44.488,93.348,87.744,139.361,132.301c54.553,52.828,114.459,99.574,165.047,157.191
		c48.793,55.574,103.445,106.162,149.018,164.764c77.535,99.703,147.383,203.727,187.14,325.527
		c16.809,51.484,33.352,102.877,44.518,155.856c9.502,45.104,9.592,89.815-7.508,133.648c-2.973,7.628-5.875,14.209-13.691,17.546
		C7664.711,6119.753,7660.639,6098.967,7657.025,6078.031z"/>
	<path fill-rule="evenodd" clip-rule="evenodd" fill="#DD9485" d="M1198.202,4933.739c6.69-20.619,21.207-6.557,29.768-4.441
		c24.344,6.006,41.141,24.506,58.711,41.657c54.687,53.385,107.335,53.26,162.462,1.968
		c61.441-57.164,127.93-108.206,196.304-156.666c23.757-16.84,44.614-36.402,63.818-57.694
		c32.111-35.597,32.213-80.238-0.104-116.494c-40.859-45.839-88.124-83.611-144.936-108.512
		c-23.494-10.298-54.4-0.416-71.978-26.571c-9.269-21.739-18.541-43.473-27.812-65.209c11.554-31.296,43.494-28.491,66.887-39.982
		c37.994,33.594,67.924,75.246,108.414,106.501c75.32,58.146,149.482,117.792,224.873,175.848
		c19.845,15.281,27.446,23.642,0.989,42.188c-108.738,76.222-214.797,156.288-324.008,231.812
		c-41.041,28.384-72.593,63.92-102.699,102.077c-28.375,40.938-74.136,18.269-110.646,29.698
		c-10.446,3.273-17.298-7.496-21.706-16.701c-7.472-15.59-19.612-26.008-35.141-32.902
		C1243.751,5007.021,1220.162,4970.938,1198.202,4933.739z"/>
	<path fill-rule="evenodd" clip-rule="evenodd" fill="#DF9687" d="M8521.324,3382.567
		c-67.342-49.468-134.572-99.084-202.047-148.371c-121.283-88.592-256.822-149.775-395.305-205.303
		c-14.166-5.681-27.865-12.53-41.779-18.837c-12.463-18.304-27.727-33.737-46.775-45.198
		c-19.912-11.982-21.543-28.675-13.242-48.444c13.928-33.16,54.875-54.556,90.861-50.051c25.094,3.141,49.994,13.9,75.943,4.892
		c60.289,1.898,118.32,18.542,177.416,28.098c16.447,2.658,32.754,1.668,48.895,4.462c4.625,3.753,15.457,1.717,13.535,11.156
		c-2.059,10.13-11.527,15.648-20.396,11.743c-40.227-17.721-75.549-1.416-111.621,13.355c-19.992,8.184-41.875,2.358-62.525,6.269
		c-11.893,2.252-26.156,3.768-29.596,17.599c-3.52,14.142,8.309,23.546,18.746,28.451c59.137,27.778,104.168,79.375,168.092,98.89
		c9.715,2.967,16.852,10.392,24.518,16.792c22.053,18.422,43.848,36.031,72.801,44.719c26.68,8.007,42.977,33.609,66.521,48.569
		c62.688,39.829,121.904,84.479,165.559,146.263c5.758,8.143,12.637,15.941,14.055,26.065
		C8536.525,3384.763,8531.385,3388.058,8521.324,3382.567z"/>
	<path fill-rule="evenodd" clip-rule="evenodd" fill="#E6B2A5" d="M8521.324,3382.567c5.234-1.185,12.582-1.996,6.881-9.68
		c-16.35-22.045-28.914-47.265-50.117-65.299c-46.092-39.207-94.195-75.691-142.906-111.729
		c-44.34-32.807-98.174-49.726-137.666-91.063c-16.045-16.79-46.684-20.147-69.119-34.526
		c-34.852-22.332-66.635-49.315-104.535-67.318c-16.014-7.609-37.557-19.594-32.27-40.922c5.502-22.197,30.482-27.106,49.441-24.729
		c37.586,4.714,68.484-14.14,102.348-22.229c21.436-5.12,42.535-12.067,62.559,4.727c5.547,4.653,13.727,3.516,17.209-3.343
		c3.148-6.2-5.969-7.837-7.857-12.646c35.395,4.438,70.785,8.871,106.178,13.31c-1.396,32.049-28.73,37.475-50.389,44.787
		c-29.063,9.817-60.18,12.559-88.564,26.281c-29.932,14.475-32.922,23.154-10.08,48.215c27.773,30.476,61.74,53.424,95.783,76.034
		c97.574,64.805,196.467,127.565,279.393,211.982c30.221,30.767,38.828,70.681,55.053,107.564c0.035,0.078-5.279,2.51-8.098,3.844
		C8572.047,3415.466,8542.178,3405.214,8521.324,3382.567z"/>
	<path fill-rule="evenodd" clip-rule="evenodd" fill="#E2A397" d="M8187.836,5113.826c-14.23,16.304-32.287,20.302-53.412,19.64
		c-67.123-2.104-129.402-22.547-191.27-46.325c-66.709-25.644-132.502-53.975-202.918-69.158
		c-49.064-10.578-74.041,1.275-93.797,48.285c-13.102,31.174-12.588,67.731-37.317,94.305
		c-15.307-36.99-31.145-73.792-40.516-112.916c1.008-27.488,12.344-50.784,30.346-70.756
		c29.022-32.193,62.021-50.192,108.272-37.523c26.949,7.384,51.619,24.241,81.207,21.628
		c102.459,33.024,201.475,75.285,302.232,112.88C8123.457,5086.12,8155.467,5100.451,8187.836,5113.826z"/>
	<path fill-rule="evenodd" clip-rule="evenodd" fill="#DA8272" d="M1957.517,4316.467c34.417,32.709,63.876,69.861,91.138,108.343
		c17.781,25.1,12.377,57.148,16.824,86.336c7.77,51.01-11.57,82.664-54.491,110.252c-60.748,39.047-59.998,42.383-79.683-25.54
		c-23.223-80.142-44.148-160.949-66.07-241.469c24.053,9.704,43.278-12.067,47.759-22.713
		C1924.341,4304.718,1941.143,4315.927,1957.517,4316.467z"/>
	<path fill-rule="evenodd" clip-rule="evenodd" fill="#D37165" d="M7988.98,2871.255c1.447,4.392,17.309,14.314-2.467,11.092
		c-25.125-4.095-51.285-1.72-75.223-7.676c-37.771-9.404-58.662,12.619-77.172,35.914c-14.449,18.186-18.676,40.893,13.014,51.695
		c21.119,7.198,26.75,30.879,43.209,43.317c-2.717,1.484-5.434,2.971-8.148,4.458c-38.24-13.497-76.525-26.867-114.672-40.632
		c-6.088-2.2-13.084-4.879-17.025-9.556c-36.607-43.433-74.424-85.995-112.264-143.018
		C7761.613,2835.988,7875.301,2853.622,7988.98,2871.255z"/>
	<path fill-rule="evenodd" clip-rule="evenodd" fill="#D26F62" d="M6870.269,4847.33c-3.463,5.072-9.471,8.347-14.152,5.983
		c-28.221-14.242-46.135,6.859-66.467,18.728c-31.543,18.406-34.828,50.514-9.412,78.088c6.082,6.599,15.604,14.835,2.76,24.479
		c-78.176-58.594-156.354-117.185-233.865-175.279c5.857-13.532,14.098-9.441,21.35-8.877
		c92.307,7.211,182.945,23.524,271.041,52.159C6851.401,4845.821,6861.019,4844.148,6870.269,4847.33z"/>
	<path fill-rule="evenodd" clip-rule="evenodd" fill="#D37264" d="M7189.931,3954.463c-1.061,4.578,17.787,9.988-0.467,13.784
		c-20.34,4.229-42.57,15.196-60.732,10.55c-30.496-7.804-39.008,14.83-54.637,28.169c-13.244,11.306-21.949,28.107-39.494,34.168
		c-11.111,3.84-8.537,10.495-5.822,18.219c10.117,28.812,13.557,60.549,41.744,80.785c7.041,5.056-4.309,6.463-7.98,8.859
		c-41.518-18.243-82.791-37.087-121.355-61.053c-34.689-21.553-35.689-47.367-0.977-68.343
		c61.678-37.269,131.535-49.48,201.59-57.797C7157.987,3959.883,7173.44,3953.458,7189.931,3954.463z"/>
	<path fill-rule="evenodd" clip-rule="evenodd" fill="#D5776A" d="M7788.432,4961.005c-19.006,13.112-36.08-0.037-52.529-5.59
		c-75.846-25.601-107.648-11.465-153.882,58.143c-7.316,11.016,11.725,31.271-13.414,34.097
		c-19.018-52.721-38.1-105.422-56.982-158.192c-2.535-7.083-6.777-15.536-0.402-21.646c6.664-6.377,14.434,0.02,21.506,2.175
		C7619.359,4896.402,7703.563,4929.635,7788.432,4961.005z"/>
	<path fill-rule="evenodd" clip-rule="evenodd" fill="#C45652" d="M1531.321,4401.794c-2.55,5.542,5.179,18.054-0.436,15.907
		c-30.373-11.629-45.409,13.613-66.451,24.075c-23.458-54.437-47.07-108.807-70.33-163.325
		c-23.342-54.711-44.203-110.321-58.354-168.782C1396.744,4210.031,1457.715,4310.172,1531.321,4401.794z"/>
	<path fill-rule="evenodd" clip-rule="evenodd" fill="#CE6059" d="M8361.783,3476.734c31.951,11.774,65.379,1.719,96.822,7.156
		c-35.336,19.337-3.857,49.167-8.848,74.11c-6.455,32.26,25.078,44.422,46.541,60.897c-9.291-1.201-18.578-2.403-27.869-3.605
		c-69.973-42.628-139.947-85.259-214.24-130.516C8293.313,3478.76,8327.125,3472.877,8361.783,3476.734z"/>
	<path fill-rule="evenodd" clip-rule="evenodd" fill="#D2776E" d="M3229.782,6131.263c-0.625,6.479-1.251,12.954-1.939,20.081
		c-35.076-42.905-27.371-97.117-35.465-144.959c-9.835-58.117-39.256-90.809-83.588-122.754
		c-41.987-30.256-86.316-9.58-128.51-18.525c53.896-23.008,112.039-30.439,168.081-45.592c17.517-4.736,19.724,7.797,22.142,20.664
		c15.123,80.525,30.639,160.982,45.877,241.488C3219.577,6098.566,3221.575,6115.738,3229.782,6131.263z"/>
	<path fill-rule="evenodd" clip-rule="evenodd" fill="#C95E59" d="M1957.517,4316.467c-7.927,44.029-19.628-19.629-29.859,8.963
		c1.32,10.82-2.657,24.091-26.816,23.759c-15.094-0.21-5.127,18.773-15.19,28.668c-6.858-7.882-13.639-15.678-20.417-23.47
		c-17.724-57.488-33.25-115.482-43.004-183.068C1875.428,4218.783,1914.076,4269.934,1957.517,4316.467z"/>
	<path fill-rule="evenodd" clip-rule="evenodd" fill="#D17165" d="M1271.397,5040.314c18.682-10.035,29.106,3.926,33.324,16.424
		c12.131,35.949,38.458,25.438,62.148,21.016c11.575-2.162,21.095-9.279,32.736,1.484c9.362,8.65,14.785-0.023,20.266-8.096
		c4.061-5.984,6.779-17.83,19.019-10.923c-18.596,32.31-38.247,64.073-55.404,97.128c-10.82,20.845-21.565,19.475-33.987,3.771
		C1319.637,5123.375,1293.239,5083.293,1271.397,5040.314z"/>
	<path fill-rule="evenodd" clip-rule="evenodd" fill="#823442" d="M6280.825,6184.396c12.207-30.378,24.908-60.574,36.279-91.264
		c2.824-7.63,3.83-14.83,13.398-15.98c-9.508,47.133-23.586,92.709-46.229,135.371
		C6283.124,6203.153,6281.974,6193.775,6280.825,6184.396z"/>
	<path fill-rule="evenodd" clip-rule="evenodd" fill="#FFFFFF" d="M7106.132,2657.072
		c-131.469,10.196-259.129,26.995-380.188,78.211c-95.033,40.208-174.635,94.975-220.168,194.55
		c-30.928,67.619-98.891,95.504-167.863,112.827c-118.287,29.714-238.371,35.153-359.236,18.993
		c-56.449-7.549-98.729-44.367-142.07-75.787c-97.676-70.809-192.535-145.581-278.021-231.157
		c-33.713-33.748-62.309-72.129-83.408-115.125c-24.754-50.448-11.605-82.065,42.123-98.585
		c86.541-26.609,172.76-11.573,258.93,4.752c26.703,5.059,44.492,19.466,62.256,39.215
		c106.01,117.86,240.125,189.14,391.277,230.993c5.033,1.393,10.785,0.177,22,0.177c-32.602-34.247-63.262-63.956-91.012-96.172
		c-45.367-52.67-91.686-104.851-125.389-166.38c-5.322-9.711-10.832-19.487-14.633-29.829
		c-13.072-35.561-5.293-50.098,31.854-51.597c104.201-4.205,208.373-2.17,312.285,7.541c28.594,2.672,57.34,4.914,85.613,9.732
		c180.883,30.822,362.082,60.568,536.086,121.591C7026.851,2625.149,7066.3,2641.659,7106.132,2657.072z"/>
	<path fill-rule="evenodd" clip-rule="evenodd" fill="#6C363C" d="M7135.468,3494.567c3.992-15.478,16.84-11.736,27.123-11.753
		c120.322-0.178,240.643-0.112,360.961,0.131c10.471,0.021,23.049-2.958,27.227,12.062
		C7412.345,3494.859,7273.905,3494.713,7135.468,3494.567z"/>
	<path fill-rule="evenodd" clip-rule="evenodd" fill="#7A2D36" d="M1830.335,2963.213c29.156-6.036,42.951,13.488,61.701,38.554
		c-63.706,2.932-122.148,2.598-180.605-1.493c-2.584-0.183-4.736-6.533-7.088-10.009c47.165,0,94.332,0,141.527,0
		C1850.05,2973.097,1826.933,2976.724,1830.335,2963.213z"/>
	<path fill-rule="evenodd" clip-rule="evenodd" fill="#7C333D" d="M5885.382,4694.235c-3.09-0.966-7.945-0.998-9.014-3.021
		c-32.262-61.277-61.576-123.368-50.648-195.898c1.313-8.727,3.934-14.703,13.922-14.276c-6.289,63.436,0.82,123.938,38.035,178.164
		C5884.776,4669.556,5885.044,4682.057,5885.382,4694.235z"/>
	<path fill-rule="evenodd" clip-rule="evenodd" fill="#78323E" d="M6450.997,2356.854c14.668-6.343,36.006,12.431,45.824-12.166
		c32.021-3.71,48.133,31.576,79.049,32.169c8.254,0.159,16.355,8.146,28.324,14.578c-28.629,12.77-49.508-8.63-72.83-10.004
		c-19.662-1.157-40.617-12.043-62.627-11.821C6460.065,2369.695,6454.634,2364.279,6450.997,2356.854z"/>
	<path fill-rule="evenodd" clip-rule="evenodd" fill="#882B3D" d="M3828.929,1825.314c-2.395,11.278-10.932,11.837-20.113,11.858
		c-51.242,0.123-102.48,0.383-153.721,0.596c1.576-12.062,10.594-12.074,19.599-12.097
		C3726.105,1825.551,3777.519,1825.433,3828.929,1825.314z"/>
	<path fill-rule="evenodd" clip-rule="evenodd" fill="#83303D" d="M6226.378,4107.299c-34.592-16.939-62.775-72.274-49.986-106.371
		c6.576-17.547,3.799-40.13,22.859-52.404c-1.32,31.248-18.92,60.066-9.188,93.6
		C6197.407,4067.429,6220.237,4082.41,6226.378,4107.299z"/>
	<path fill-rule="evenodd" clip-rule="evenodd" fill="#6C363C" d="M7601.931,3496.214c19.347,0.223,31.458-4.891,20.114-27.295
		c20.703-0.328,33.045,12.777,43.625,27.976c2.553,3.665,0.713,10.703-3.975,10.403
		C7641.416,3506.001,7617.969,3520.233,7601.931,3496.214z"/>
	<path fill-rule="evenodd" clip-rule="evenodd" fill="#882B3D" d="M3602.835,1838.75c-8.1,20.547-26.119,10.63-39.715,11.915
		c-18.289,1.729-36.891,0.158-55.364,0.003c5.577-18.396,21.089-11.862,32.997-12.306
		C3561.415,1837.596,3582.138,1838.528,3602.835,1838.75z"/>
	<path fill-rule="evenodd" clip-rule="evenodd" fill="#7B2E3E" d="M7070.868,3229.447c-19.488-0.242-38.977-0.52-58.465-0.708
		c-9.887-0.096-20.129,0.609-22.766-12.562c20.65,0.123,41.313,0.36,61.969,0.32
		C7061.12,3216.478,7068.987,3218.365,7070.868,3229.447z"/>
	<path fill-rule="evenodd" clip-rule="evenodd" fill="#7B323D" d="M3230.157,1878.341c-23.88,23.833-53.789,9.538-80.922,12.794
		c6.711-22.143,25.291-11.063,38.592-12.893C3201.671,1876.338,3216.026,1878.152,3230.157,1878.341z"/>
	<path fill-rule="evenodd" clip-rule="evenodd" fill="#78333D" d="M4739.144,2052.735c-21.746-1.441-41.649-6.379-52.861-27.833
		C4709.878,2022.82,4726.958,2033.125,4739.144,2052.735z"/>
	<path fill-rule="evenodd" clip-rule="evenodd" fill="#7B323D" d="M3149.349,1891.094c-16.018,25.538-40.58,9.134-61.134,12.454
		C3104.806,1880.813,3128.942,1895.109,3149.349,1891.094z"/>
	<path fill-rule="evenodd" clip-rule="evenodd" fill="#7B2E3E" d="M6978.448,3215.402c-18.758-2.956-41.285,11.497-55.6-12.037
		C6941.671,3206.041,6964.274,3191.249,6978.448,3215.402z"/>
	<path fill-rule="evenodd" clip-rule="evenodd" fill="#7B323D" d="M3077.282,1904.696c-11.498,22.341-31.871,10.226-48.541,12.498
		C3040.24,1894.858,3060.319,1905.82,3077.282,1904.696z"/>
	<path fill-rule="evenodd" clip-rule="evenodd" fill="#882B3D" d="M3655.186,1837.738c-13.083,21.18-26.694,18.561-40.647,0.905
		C3628.017,1835.436,3641.575,1835.489,3655.186,1837.738z"/>
	<path fill-rule="evenodd" clip-rule="evenodd" fill="#095644" d="M4740.415,2477.336
		c-42.576,52.406-105.258,82.926-147.539,136.497c-10.813,13.699-23.342,28.18-32.631,42.451
		c-14.228,21.859,12.026,38.451,23.268,48.355c73.826,65.052,150.126,127.919,235.117,177.931
		c114.983,67.659,235.012,125.209,358.361,176.899c71.021,29.761,143.195,56.928,214.635,85.235
		c66.377,26.306,134.289,50.797,203.311,70.715c16.385,4.728,29.271,17.02,47.785,17.061c-4.801,13.264-14.381,10.528-20.375,8.857
		c-56.758-15.826-116.238-16.793-172.906-29.194c-74.727-16.354-151.188-27.581-223.877-50.762
		c-66.256-21.13-134.088-36.375-199.834-60.822c-72.7-27.034-146.275-51.581-218.798-80.098
		c-99.425-39.094-191.62-89.638-282.331-144.766c-52.293-31.778-99.602-70.534-150.836-103.802
		c-17.342-11.263-30.938-34.639-47.961-51.306c-13.652-13.361-0.447-25.766,10.719-31.9
		c69.889-38.398,134.959-86.254,206.62-119.836c65.108-30.514,116.497-79.124,178.188-112.87c5.616-3.073,12.075-4.597,18.145-6.84
		c8.57-4.198,18.522-6.342,22.062,4.434C4767.376,2471.349,4746.397,2468.286,4740.415,2477.336z"/>
	<path fill-rule="evenodd" clip-rule="evenodd" fill="#055744" d="M5636.085,3103.86c-34.715,11.764-67.293-6.17-99.488-12.205
		c-41.498-7.778-83.127-20.288-124.248-32.448c-62.926-18.604-126.332-36.663-187.469-59.558
		c-67.051-25.11-132.637-55.034-196.877-87.751c-67.623-34.439-130.234-76.382-194.688-115.749
		c-58.918-35.983-107.775-83.446-159.298-127.926c-14.367-12.397-12.913-28.619,6.716-39.442
		c38.6-21.282,76.528-43.787,115.218-64.896c29.419-16.051,59.477-30.95,89.456-45.95c35.042-17.529,50.449-11.653,59.23,26.591
		c20.1,87.553,67.904,160.875,124.523,226.702c51.395,59.754,115.039,108.119,182.463,150.267
		c81.336,50.842,166.119,96.069,255.049,130.81C5549.315,3068.959,5589.989,3092.97,5636.085,3103.86z"/>
	<path fill-rule="evenodd" clip-rule="evenodd" fill="#842C2F" d="M4740.415,2477.336c1.734-3.813,2.672-8.377,5.395-11.258
		c3.881-4.106,15.386-2.657,11.439-11.628c-1.613-3.666-11.596-3.648-17.773-5.307c1.264-8.394-0.559-23.377,8.192-22.669
		c35.069,2.835,49.946-30.41,77.547-39.731c9.318-3.146,20.733-6.96,26.175,4.271c5.731,11.833-6.92,13.751-12.986,20.513
		c-20.211,22.534-52.253,29.288-69.271,54.426C4761.478,2477.263,4751.401,2477.182,4740.415,2477.336z"/>
	<path fill-rule="evenodd" clip-rule="evenodd" fill="#733139" d="M5719.47,5438.985c-30.645-45.808-54.186-95.184-73.648-146.61
		c7.729,0.576,17.037,0.053,19.477,9.269c11.686,44.127,38.926,81.425,53.637,124.144
		C5720.31,5429.775,5719.349,5434.566,5719.47,5438.985z"/>
	<path fill-rule="evenodd" clip-rule="evenodd" fill="#723137" d="M5885.358,3841.67c17.447-36.005,42.293-64.568,80.313-79.899
		C5943.983,3793.505,5917.083,3820.014,5885.358,3841.67z"/>
	<path fill-rule="evenodd" clip-rule="evenodd" fill="#862C3D" d="M5966.089,3401.372c-28.301-0.069-56.605-0.156-84.906-0.204
		c-9.875-0.017-20.232,0.985-22.963-12.313c28.379-0.148,56.762-0.279,85.148-0.449
		C5953.468,3388.344,5963.583,3388.166,5966.089,3401.372z"/>
	<path fill-rule="evenodd" clip-rule="evenodd" fill="#862C3D" d="M5832.968,3388.185c-21.695,0.208-43.395,0.305-65.086,0.672
		c-10.24,0.175-19.887-0.176-22.867-12.763c21.59,0,43.186-0.047,64.775,0.022
		C5819.538,3376.146,5829.87,3375.279,5832.968,3388.185z"/>
	<path fill-rule="evenodd" clip-rule="evenodd" fill="#733139" d="M5752.872,5505.668c-14.902-20.377-38.029-36.635-33.447-66.771
		C5744.101,5454.378,5750.745,5478.891,5752.872,5505.668z"/>
	<path fill-rule="evenodd" clip-rule="evenodd" fill="#723137" d="M5858.274,3868.29c2.381-15.637,7.869-28.115,27.084-26.62
		C5883.491,3857.828,5878.542,3870.852,5858.274,3868.29z"/>
	<path fill-rule="evenodd" clip-rule="evenodd" fill="#7A333E" d="M4795.302,3614.855c-31.161,3.042-59.535-2.837-82.59-25.792
		C4743.528,3587.116,4770.925,3596.149,4795.302,3614.855z"/>
	<path fill-rule="evenodd" clip-rule="evenodd" fill="#FEFFFF" d="M2699.801,4649.778c49.981-40.916,98.291-79.133,144.909-119.313
		c17.36-14.964,33.943-20.713,56.746-17.074c67.186,10.709,134.674,19.526,202.506,34.156
		c-65.057,10.766-130.066,21.839-195.204,32.081c-16.868,2.655-31.067,8.023-44.31,19.699
		c-121.186,106.825-241.867,214.269-365.059,318.747c-41.032,34.797-88.325,62.428-133.75,91.799
		c-148.52,96.038-297.765,190.966-442.817,292.254c-5.447,3.803-11.192,7.348-15.995,11.869
		c-10.903,10.261-14.23,23.104-6.483,36.09c8.795,14.746,22.214,12.25,34.924,5.33c32.728-17.818,65.25-36.018,101.861-56.284
		c-5.898,29.685-13.435,51.876-41.719,60.886c-13.958,4.445-23.499,13.947-31.018,27.625
		c-23.892,43.438-60.643,75.942-98.17,106.988c-30.489,25.227-58.598,22.707-86.186-11.295
		c-55.804-68.787-89.252-147.157-86.531-237.475c1.333-44.255,6.869-88.255,19.506-131.043
		c5.551-18.791,14.733-32.052,34.477-40.683c108.542-47.46,221.254-83.234,333.081-121.532c1.045-0.355,2.136-0.612,3.224-0.811
		c69.913-12.711,114.53-55.052,158.12-110.887c50.994-65.318,117.294-119.725,197.975-150.967
		c71.086-27.524,142.586-54.232,212.25-85.041c29.104-12.87,39.551-7.863,41.88,22.145
		C2694.503,4633.294,2697.082,4639.382,2699.801,4649.778z"/>
	<path fill-rule="evenodd" clip-rule="evenodd" fill="#FEFEFE" d="M1266.693,5334.393c48.874,46.229,99.672,85.566,169.181,107.14
		c-15.305-51.769,12.625-73.55,51.366-91.62c51.989-24.251,102.149-52.401,153.427-78.215c9.248-4.656,19.908-13.432,30.626-3.883
		c8.865,7.907,6.162,19.4,1.619,27.91c-40.705,76.269-26.812,159.693-32.766,240.549c-1.373,18.646-4.822,37.287-9.053,55.527
		c-3.398,14.649-14.858,24.984-29.329,18.87c-34.968-14.784-56.423,6.69-79.678,25.397c-36.279,29.189-37.791,29.795-56.532-12.77
		c-12.543-28.492-28.486-32.996-54.045-17.965c-15.22,8.947-31.334,16.527-47.525,23.635c-15.587,6.842-20.444-0.111-16.717-15.309
		c0.519-2.118,1.343-4.362,2.664-6.054c34.374-43.936,19.115-75.585-16.113-114.204
		C1294.641,5450.459,1276.305,5392.866,1266.693,5334.393z"/>
	<path fill-rule="evenodd" clip-rule="evenodd" fill="#F8FAFA" d="M1747.988,3867.358c38.563-47.261,77.789-58.53,130.666-39.161
		c50.628,18.547,93.042,50.722,134.417,83.789c18.604,14.868,33.616,13.761,49.874,0.107c14.378-12.068,28.635-24.476,41.547-38.063
		c40.394-42.518,76.751-51.134,131.604-27.997c64.299,27.117,128.024,54.354,200.52,50.207
		c27.589-1.577,53.241-11.692,84.568-14.958c-18.41,50.142-49.934,85.599-89.986,113.063c-59.094,40.521-37.623,41.384-94.613,1.308
		c-42.433-29.838-82.584-63.108-122.151-96.734c-13.995-11.895-22.822-12.255-36.271-0.89
		c-37.231,31.456-75.748,61.842-100.472,104.777c-11.459,19.896-24.415,18.886-40.803,9.649
		c-48.958-27.599-98.053-54.967-146.681-83.142C1845.425,3903.369,1798.275,3882.847,1747.988,3867.358z"/>
	<path fill-rule="evenodd" clip-rule="evenodd" fill="#FBFCFC" d="M1651.243,4242.153c-31.167-29.477-51.891-61.906-72.14-94.451
		c-61.885-99.454-114.527-203.952-167.412-308.327c-9.37-18.492-9.828-31.244,8.937-44.477
		c31.504-22.216,60.125-48.444,94.86-66.163c15.86-8.092,29.606-6.239,42.832,5.012c22.886,19.476,40.952,43.143,58.827,67.009
		c5.518,7.366,7.238,14.229-2.662,18.762c-71.413,32.697-51.215,91.497-39.481,145.585c19.161,88.316,43.458,175.38,74.103,260.542
		C1650.498,4229.504,1650.24,4233.96,1651.243,4242.153z"/>
	<path fill-rule="evenodd" clip-rule="evenodd" fill="#FBFCFC" d="M1162.376,4192.358
		c-76.829-56.127-124.091-134.821-170.577-213.897c-20.087-34.171-37.512-69.893-56.665-104.625
		c-8.433-15.293-7.972-21.999,12.408-25.487c44.629-7.63,88.829-18.029,132.894-28.597c17.905-4.293,19.782,1.065,14.285,16.137
		c-20.669,56.688-12.198,112.771,2.834,169.127C1114.609,4068.946,1140.124,4129.807,1162.376,4192.358z"/>
	<path fill-rule="evenodd" clip-rule="evenodd" fill="#F4F6F6" d="M3108.854,2900.902c105.098-49.165,116.197-97.508,43.535-162.976
		c45.998-38.089,65.142-33.763,89.482,20.218c26.752,59.328,0.488,131.173-58.093,160.31
		C3154.86,2932.837,3137.706,2905.561,3108.854,2900.902z"/>
	<path fill-rule="evenodd" clip-rule="evenodd" fill="#D5E5E6" d="M2975.391,2821.188c18.747-14.92,36.966-23.882,59.296-32.157
		c-4.819,23.646-7.051,44.915,7.615,70.472C3013.093,2848.348,2994.978,2835.826,2975.391,2821.188z"/>
</g>
</svg>
